<?xml version="1.0" encoding="utf-8"?>
<!-- Generator: Adobe Illustrator 19.1.0, SVG Export Plug-In . SVG Version: 6.00 Build 0)  -->
<svg version="1.1" id="Layer_1" xmlns="http://www.w3.org/2000/svg" xmlns:xlink="http://www.w3.org/1999/xlink" x="0px" y="0px"
	 viewBox="0 0 70 97" style="enable-background:new 0 0 70 97;" xml:space="preserve">
<style type="text/css">
	.st0{fill:#2A66B1;}
</style>
<g>
	<path class="st0" d="M64.5,4.6H5c-2.2,0-4,1.8-4,4V88c0,2.2,1.8,4,4,4h59.6c2.2,0,4-1.8,4-4V8.6C68.5,6.4,66.7,4.6,64.5,4.6
		L64.5,4.6z M60.6,12.6v11.9H8.9V12.6H60.6z M8.9,84V32.4h51.6V84L8.9,84L8.9,84z M8.9,84"/>
	<path class="st0" d="M23.1,35.9h-8.2c-1.1,0-2,0.9-2,2v8.2c0,1.1,0.9,2,2,2h8.2c1.1,0,2-0.9,2-2v-8.2
		C25.1,36.8,24.2,35.9,23.1,35.9L23.1,35.9z M23.1,35.9"/>
	<path class="st0" d="M38.9,35.9h-8.2c-1.1,0-2,0.9-2,2v8.2c0,1.1,0.9,2,2,2h8.2c1.1,0,2-0.9,2-2v-8.2C40.9,36.8,40,35.9,38.9,35.9
		L38.9,35.9z M38.9,35.9"/>
	<path class="st0" d="M54.6,35.9h-8.2c-1.1,0-2,0.9-2,2v8.2c0,1.1,0.9,2,2,2h8.2c1.1,0,2-0.9,2-2v-8.2
		C56.6,36.8,55.7,35.9,54.6,35.9L54.6,35.9z M54.6,35.9"/>
	<path class="st0" d="M23.1,52.1h-8.2c-1.1,0-2,0.9-2,2v8.2c0,1.1,0.9,2,2,2h8.2c1.1,0,2-0.9,2-2v-8.2C25.1,53,24.2,52.1,23.1,52.1
		L23.1,52.1z M23.1,52.1"/>
	<path class="st0" d="M38.9,52.1h-8.2c-1.1,0-2,0.9-2,2v8.2c0,1.1,0.9,2,2,2h8.2c1.1,0,2-0.9,2-2v-8.2C40.9,53,40,52.1,38.9,52.1
		L38.9,52.1z M38.9,52.1"/>
	<path class="st0" d="M23.1,68.3h-8.2c-1.1,0-2,0.9-2,2v8.2c0,1.1,0.9,2,2,2h8.2c1.1,0,2-0.9,2-2v-8.2
		C25.1,69.2,24.2,68.3,23.1,68.3L23.1,68.3z M23.1,68.3"/>
	<path class="st0" d="M38.9,68.3h-8.2c-1.1,0-2,0.9-2,2v8.2c0,1.1,0.9,2,2,2h8.2c1.1,0,2-0.9,2-2v-8.2C40.9,69.2,40,68.3,38.9,68.3
		L38.9,68.3z M38.9,68.3"/>
	<path class="st0" d="M54.6,52.1h-8.2c-1.1,0-2,0.9-2,2v24.4c0,1.1,0.9,2,2,2h8.2c1.1,0,2-0.9,2-2V54.1C56.6,53,55.7,52.1,54.6,52.1
		L54.6,52.1z M54.6,52.1"/>
</g>
</svg>
