<?xml version="1.0" encoding="utf-8"?>
<!-- Generator: Adobe Illustrator 19.1.0, SVG Export Plug-In . SVG Version: 6.00 Build 0)  -->
<svg version="1.1" id="Layer_1" xmlns="http://www.w3.org/2000/svg" xmlns:xlink="http://www.w3.org/1999/xlink" x="0px" y="0px"
	 viewBox="0 0 111 98" style="enable-background:new 0 0 111 98;" xml:space="preserve">
<style type="text/css">
	.st0{fill:#2A66B1;}
</style>
<g>
	<path class="st0" d="M108.6,97.1H2.1c-0.9,0-1.6-0.7-1.6-1.6V2.1c0-0.9,0.7-1.6,1.6-1.6h95.6c0.9,0,1.6,0.7,1.6,1.6v46.6h9.3
		c0.9,0,1.6,0.7,1.6,1.6v45.3C110.1,96.4,109.4,97.1,108.6,97.1L108.6,97.1z M29.2,93.9H107V51.8H74.4c-0.9,0-1.6-0.7-1.6-1.6v-3
		h-3.9c-0.9,0-1.6-0.7-1.6-1.6c0-0.9,0.7-1.6,1.6-1.6h3.9V33.9c0-0.9,0.7-1.6,1.6-1.6c0.9,0,1.6,0.7,1.6,1.6v14.8h9.2v-45H76v11.5
		c0,0.9-0.7,1.6-1.6,1.6c-0.9,0-1.6-0.7-1.6-1.6v-4.8H48.1c-0.9,0-1.6-0.7-1.6-1.6V3.7h-5.7V11c0,0.9-0.7,1.6-1.6,1.6
		c-0.9,0-1.6-0.7-1.6-1.6V3.7h-1.7v4.1c0,0.9-0.7,1.6-1.6,1.6h-0.5c0.3,0.6,0.4,1.4,0.4,2.1v4.1c0,2.9-2.4,5.3-5.3,5.3
		c-2.9,0-5.2-2.4-5.2-5.3v-4.1c0-0.7,0.2-1.5,0.4-2.1h-0.5c-0.9,0-1.6-0.7-1.6-1.6V3.7h-5.7v20.9c0,0.9-0.7,1.6-1.6,1.6h-2v8.8h24.8
		v-7.3c0-0.9,0.7-1.6,1.6-1.6c0.9,0,1.6,0.7,1.6,1.6V44h3.9c0.9,0,1.6,0.7,1.6,1.6c0,0.9-0.7,1.6-1.6,1.6h-3.9v7.7
		c0,0.9-0.7,1.6-1.6,1.6c-0.9,0-1.6-0.7-1.6-1.6V38.1H15.1v45.2h12.5c0.9,0,1.6,0.7,1.6,1.6V93.9z M3.7,93.9H26v-7.5H13.5
		c-0.9,0-1.6-0.7-1.6-1.6V57.5H3.7V93.9z M3.7,54.3h8.3V38.1H3.7V54.3z M93.8,48.7h2.3v-45h-2.3V48.7z M88.3,48.7h2.3v-45h-2.3V48.7
		z M3.7,34.4h6v-8.3h-6V34.4z M11.2,22.9h2V3.7H3.7v19.3H11.2z M29,9.3c-1.2,0-2.1,0.9-2.1,2.1v4.1c0,1.2,0.9,2.1,2.1,2.1
		c1.2,0,2.1-0.9,2.1-2.1v-4.1C31.1,10.2,30.2,9.3,29,9.3L29,9.3z M49.6,7.2h23.2V3.7H49.6V7.2z M29,6.1h3.7V3.7h-7.5v2.5H29z
		 M63.5,89.3H50.9c-0.9,0-1.6-0.7-1.6-1.6V58.8c0-0.9,0.7-1.6,1.6-1.6h12.6c0.9,0,1.6,0.7,1.6,1.6v28.9
		C65.1,88.6,64.4,89.3,63.5,89.3L63.5,89.3z M52.4,86.1h9.5v-1.6h-5.6c-0.9,0-1.6-0.7-1.6-1.6V63.5c0-0.9,0.7-1.6,1.6-1.6h5.6v-1.6
		h-9.5V86.1z M57.9,81.4h4V65.1h-4V81.4z M97.6,88.3c-0.9,0-1.6-0.7-1.6-1.6V59.6c0-0.9,0.7-1.6,1.6-1.6c0.9,0,1.6,0.7,1.6,1.6v4.9
		c0.8,0.1,1.5,0.7,1.5,1.6v14.2c0,0.8-0.6,1.5-1.5,1.6v4.9C99.2,87.6,98.5,88.3,97.6,88.3L97.6,88.3z M82.5,86.4
		c-5,0-8.9-5.4-8.9-12.3c0-6.9,3.9-12.3,8.9-12.3c5,0,8.9,5.4,8.9,12.3C91.4,81,87.5,86.4,82.5,86.4L82.5,86.4z M82.5,65
		c-3.1,0-5.8,4.2-5.8,9.1c0,5,2.6,9.1,5.8,9.1c3.1,0,5.8-4.2,5.8-9.1C88.2,69.2,85.6,65,82.5,65L82.5,65z M82.5,65"/>
</g>
</svg>
