<?xml version="1.0" encoding="utf-8"?>
<!-- Generator: Adobe Illustrator 19.1.0, SVG Export Plug-In . SVG Version: 6.00 Build 0)  -->
<svg version="1.1" id="Layer_1" xmlns="http://www.w3.org/2000/svg" xmlns:xlink="http://www.w3.org/1999/xlink" x="0px" y="0px"
	 viewBox="0 0 111 97" style="enable-background:new 0 0 111 97;" xml:space="preserve">
<style type="text/css">
	.st0{fill:#FFFFFF;}
</style>
<g>
	<path class="st0" d="M86.6,66.6c-2.1-2.3-4.6-3.4-7.8-3.4H72l-4.4-4.3c-3.3,2.7-7.2,4.2-11.5,4.2c-4,0-7.8-1.4-10.9-3.8l-3.9,3.8
		h-7c-3.6,0-6.3,1.2-8.5,3.7c-6.3,7.4-5.3,23.1-4.8,28H92C92.4,89.9,93,73.8,86.6,66.6L86.6,66.6z M86.6,66.6"/>
	<path class="st0" d="M37.6,33.2c-1.3,1.1-2.1,2.8-2.1,4.7c0,2.9,1.9,5.3,4.4,5.8c0.5,4.4,2.3,8.3,5.1,11.2c0.6,0.6,1.2,1.2,1.8,1.7
		c0.8,0.6,1.7,1.2,2.6,1.7c2,1.1,4.3,1.7,6.7,1.7c2.4,0,4.6-0.6,6.7-1.7c0.9-0.5,1.8-1,2.6-1.7c0.6-0.5,1.2-1.1,1.8-1.7
		c2.7-2.9,4.5-6.7,5-11.2h0.2c2.8,0,5.1-2.6,5.1-5.8c0-2-0.9-3.7-2.1-4.7H37.6z M37.6,33.2"/>
	<path class="st0" d="M75.5,22c-1.7-5.5-6-11.1-11.6-14v14.5c-0.1,0.6-0.2,1.1-0.4,1.7c-0.7,1.3-2.1,2.3-3.7,2.3h-6.7
		c-1.5,0-2.8-0.8-3.5-2c-0.3-0.5-0.5-1-0.6-1.6c-0.1-0.2-0.1-0.4-0.1-0.6V8c-5.5,2.9-9.9,8.5-11.6,14L37,23.2h-3v6.7h44.9v-6.7h-3
		L75.5,22z M75.5,22"/>
	<path class="st0" d="M53,24.8h6.7c1,0,1.8-0.5,2.2-1.3c0.2-0.4,0.3-0.7,0.3-1.2V4.7c0-0.4-0.1-0.8-0.2-1.2
		c-0.5-1.2-1.7-2.1-3.1-2.1H53c-1.3,0-2.3,1-2.5,2.2c0,0.1-0.1,0.2-0.1,0.3v18.4c0,0.5,0.2,1,0.4,1.4C51.4,24.4,52.2,24.8,53,24.8
		L53,24.8z M53,24.8"/>
</g>
</svg>
