<?xml version="1.0" encoding="utf-8"?>
<!-- Generator: Adobe Illustrator 19.1.0, SVG Export Plug-In . SVG Version: 6.00 Build 0)  -->
<svg version="1.1" id="Layer_1" xmlns="http://www.w3.org/2000/svg" xmlns:xlink="http://www.w3.org/1999/xlink" x="0px" y="0px"
	 viewBox="0 0 111 97" style="enable-background:new 0 0 111 97;" xml:space="preserve">
<style type="text/css">
	.st0{fill:#FFFFFF;}
</style>
<g>
	<path class="st0" d="M95.1,45.2L56.3,16.7L17.1,45.2v50h78V45.2z M63.7,86.1c-4.2-5.6-11.2-16.2-11.9-23.8c0,0,0.1,14.7,5.2,25.9
		c-0.2,0-0.4,0-0.5,0c-1.8,0-17.1-0.4-17.2-21.1c-0.1-20.7,20.4-32.5,20.4-32.5C55.5,55.6,73.1,56.6,73.2,71
		C73.3,79.3,68.3,83.8,63.7,86.1L63.7,86.1z M63.7,86.1"/>
	<path class="st0" d="M7.2,47.3c1,0,1.9-0.3,2.7-0.9l46.4-33.7l46.5,34c2,1.5,4.9,1.1,6.4-0.9c1.5-2,1.1-4.9-0.9-6.4l-49.3-36
		c-1.6-1.2-3.9-1.2-5.5,0L4.4,39.1c-2,1.5-2.4,4.4-0.9,6.4C4.4,46.7,5.8,47.3,7.2,47.3L7.2,47.3z M7.2,47.3"/>
</g>
</svg>
