<?xml version="1.0" encoding="utf-8"?>
<!-- Generator: Adobe Illustrator 19.1.0, SVG Export Plug-In . SVG Version: 6.00 Build 0)  -->
<svg version="1.1" id="Layer_1" xmlns="http://www.w3.org/2000/svg" xmlns:xlink="http://www.w3.org/1999/xlink" x="0px" y="0px"
	 viewBox="0 0 28 28" style="enable-background:new 0 0 28 28;" xml:space="preserve">
<style type="text/css">
	.st0{fill:#FFFFFF;}
</style>
<g>
	<path class="st0" d="M24.8,0.5H3.2c-1.5,0-2.7,1.2-2.7,2.7v21.6c0,1.5,1.2,2.7,2.7,2.7h21.6c1.5,0,2.7-1.2,2.7-2.7V3.2
		C27.5,1.7,26.3,0.5,24.8,0.5L24.8,0.5z M8.6,23.5H4.5V11.3h4.1V23.5z M6.6,9C5.2,9,4.1,7.9,4.1,6.6c0-1.4,1.1-2.4,2.4-2.4
		C7.9,4.1,9,5.2,9,6.6C9,7.9,7.9,9,6.6,9L6.6,9z M23.5,23.5h-4.1v-7.2c0-1.1-0.9-2-2-2c-1.1,0-2,0.9-2,2v7.2h-4.1V11.3h4.1v1.6
		c0.7-1.1,2.2-1.9,3.4-1.9c2.6,0,4.7,2.2,4.7,4.7V23.5z M23.5,23.5"/>
</g>
</svg>
