<?xml version="1.0" encoding="utf-8"?>
<!-- Generator: Adobe Illustrator 19.1.0, SVG Export Plug-In . SVG Version: 6.00 Build 0)  -->
<svg version="1.1" id="Layer_1" xmlns="http://www.w3.org/2000/svg" xmlns:xlink="http://www.w3.org/1999/xlink" x="0px" y="0px"
	 viewBox="0 0 152 34" style="enable-background:new 0 0 152 34;" xml:space="preserve">
<style type="text/css">
	.st0{fill:#FFFFFF;}
	.st1{fill-rule:evenodd;clip-rule:evenodd;fill:#FFFFFF;}
</style>
<g>
	<g>
		<g>
			<g>
				<g>
					<g>
						<path class="st0" d="M69.1,25.1h0.3l1.1,5.6c0,0.1,0.1,0.2,0.1,0.3c0,0.1,0.1,0.1,0.2,0.2c0,0,0.1,0,0.2,0.1
							c0.1,0,0.1,0,0.2,0.1l0,0.2h-2.6l0-0.2h0.1c0.2,0,0.4,0,0.5-0.1c0.1-0.1,0.2-0.2,0.2-0.4c0,0,0,0,0-0.1l0-0.1l-0.2-1h-2.3
							l-0.5,0.9c0,0,0,0.1-0.1,0.1c0,0,0,0.1,0,0.2c0,0.2,0.1,0.3,0.2,0.4c0.1,0.1,0.3,0.1,0.4,0.1h0.1l-0.1,0.2h-2.2l0-0.2
							c0.2,0,0.4-0.1,0.5-0.2c0.2-0.1,0.3-0.3,0.4-0.5L69.1,25.1z M68.6,26.6l-1.5,2.5h2L68.6,26.6z M72.8,25.6
							c0-0.2,0.1-0.3,0.2-0.4c0.1-0.1,0.3-0.2,0.4-0.2c0.2,0,0.3,0.1,0.4,0.2c0.1,0.1,0.2,0.3,0.2,0.4c0,0.2-0.1,0.3-0.2,0.4
							c-0.1,0.1-0.3,0.2-0.4,0.2c-0.2,0-0.3-0.1-0.4-0.2C72.9,25.9,72.8,25.8,72.8,25.6z M73.6,30.4c-0.2,0.4-0.4,0.7-0.7,0.9
							c-0.2,0.2-0.5,0.3-0.8,0.3c-0.2,0-0.3-0.1-0.4-0.2c-0.1-0.1-0.1-0.3-0.1-0.5c0,0,0-0.1,0-0.2c0-0.1,0-0.1,0-0.2l0.7-2.6
							c0,0,0-0.1,0-0.1c0,0,0-0.1,0-0.1c0-0.1,0-0.2-0.1-0.2c-0.1,0-0.2-0.1-0.4-0.1h-0.1l0-0.2c0.3,0,0.6-0.1,0.9-0.1
							c0.3,0,0.6-0.1,0.8-0.1l-0.9,3.5c0,0.1,0,0.1,0,0.1c0,0,0,0.1,0,0.1c0,0.1,0,0.1,0,0.1c0,0,0.1,0.1,0.1,0.1
							c0.1,0,0.1,0,0.2-0.1c0.1-0.1,0.2-0.2,0.3-0.5L73.6,30.4z M73.9,31.6l0.2-1.5h0.2c0.1,0.4,0.2,0.7,0.4,0.8
							c0.2,0.2,0.4,0.3,0.7,0.3c0.2,0,0.3-0.1,0.5-0.2c0.1-0.1,0.2-0.2,0.2-0.4c0-0.2-0.2-0.5-0.6-0.9l-0.2-0.2
							c-0.3-0.3-0.5-0.6-0.6-0.8c-0.1-0.2-0.1-0.4-0.1-0.6c0-0.3,0.1-0.6,0.4-0.8c0.2-0.2,0.5-0.3,0.9-0.3c0.2,0,0.5,0,0.7,0.1
							c0.2,0.1,0.4,0.1,0.4,0.1c0,0,0.1,0,0.1-0.1c0,0,0.1-0.1,0.1-0.2h0.2l-0.2,1.4H77c-0.1-0.3-0.2-0.6-0.3-0.8
							c-0.2-0.2-0.4-0.3-0.6-0.3c-0.2,0-0.3,0-0.4,0.1c-0.1,0.1-0.2,0.2-0.2,0.3c0,0.1,0,0.2,0.1,0.3c0,0.1,0.1,0.2,0.2,0.3
							c0,0,0.1,0.1,0.2,0.2c0.7,0.7,1,1.3,1,1.7c0,0.4-0.1,0.7-0.4,0.9c-0.3,0.2-0.6,0.4-1,0.4c-0.2,0-0.4,0-0.7-0.1
							c-0.2-0.1-0.4-0.1-0.4-0.1c-0.1,0-0.1,0-0.1,0.1c0,0-0.1,0.1-0.1,0.2H73.9z M77.8,30.6l1.1-4.6c0,0,0,0,0,0c0-0.1,0-0.1,0-0.2
							c0-0.1,0-0.2-0.1-0.2c-0.1,0-0.2-0.1-0.4-0.1h-0.1l0-0.2c0.3,0,0.5-0.1,0.8-0.1c0.3,0,0.6-0.1,0.9-0.2l-1.3,5.5
							c0,0,0,0.1,0,0.1c0,0,0,0.1,0,0.1c0,0.1,0,0.1,0,0.1c0,0,0.1,0,0.1,0c0.1,0,0.2,0,0.2-0.1c0.1-0.1,0.2-0.3,0.3-0.5l0.2,0.1
							c-0.2,0.4-0.4,0.7-0.7,0.9c-0.2,0.2-0.5,0.3-0.7,0.3c-0.2,0-0.3-0.1-0.4-0.1c-0.1-0.1-0.1-0.2-0.1-0.4c0-0.1,0-0.1,0-0.2
							C77.8,30.7,77.8,30.7,77.8,30.6z M81.2,30.3c0,0.2,0,0.4,0.1,0.5c0.1,0.1,0.2,0.2,0.4,0.2c0.1,0,0.3-0.1,0.4-0.2
							c0.1-0.1,0.3-0.3,0.4-0.5c0.2-0.4,0.3-0.7,0.4-1.2c0.1-0.4,0.2-0.8,0.2-1.1c0-0.2,0-0.3-0.1-0.4s-0.2-0.2-0.3-0.2
							c-0.1,0-0.3,0.1-0.4,0.2c-0.1,0.1-0.3,0.3-0.4,0.5c-0.2,0.3-0.4,0.7-0.5,1.1C81.2,29.6,81.2,30,81.2,30.3z M83.6,30.6
							L83.6,30.6c0,0.1,0,0.1,0,0.1c0,0.1,0,0.1,0,0.2c0,0,0.1,0.1,0.1,0.1c0.1,0,0.2,0,0.3-0.1c0.1-0.1,0.2-0.2,0.3-0.4l0.2,0.1
							c-0.2,0.4-0.4,0.6-0.6,0.8c-0.2,0.2-0.4,0.3-0.7,0.3c-0.2,0-0.3-0.1-0.4-0.2s-0.1-0.3-0.1-0.4c0-0.1,0-0.1,0-0.2
							c0-0.1,0-0.1,0-0.2c-0.2,0.3-0.4,0.6-0.7,0.8c-0.3,0.2-0.5,0.3-0.8,0.3c-0.3,0-0.6-0.1-0.8-0.4c-0.2-0.2-0.3-0.6-0.3-1
							c0-0.4,0.1-0.7,0.2-1.1c0.1-0.4,0.3-0.7,0.6-1.1c0.3-0.3,0.5-0.6,0.8-0.8c0.3-0.2,0.5-0.3,0.8-0.3c0.2,0,0.3,0,0.5,0.1
							c0.1,0.1,0.2,0.2,0.3,0.3l0.1-0.5h0.9L83.6,30.6z M85.5,30.3c0.2,0,0.3,0.1,0.4,0.2c0.1,0.1,0.2,0.3,0.2,0.5
							c0,0.2-0.1,0.3-0.2,0.5c-0.1,0.1-0.3,0.2-0.5,0.2c-0.2,0-0.3-0.1-0.4-0.2c-0.1-0.1-0.2-0.3-0.2-0.5c0-0.2,0.1-0.3,0.2-0.4
							C85.2,30.4,85.3,30.3,85.5,30.3z M91.7,28.2c0.1,0,0.2,0,0.2,0c0.1,0,0.1,0,0.2,0c0.6,0,1-0.1,1.4-0.4
							c0.3-0.3,0.5-0.7,0.5-1.2c0-0.3-0.1-0.6-0.3-0.8c-0.2-0.2-0.5-0.3-0.8-0.3c-0.2,0-0.4,0-0.4,0.1c-0.1,0.1-0.2,0.2-0.2,0.5
							L91.7,28.2z M92.7,25.2c0.9,0,1.5,0.1,1.9,0.4c0.4,0.3,0.6,0.6,0.6,1.2c0,0.6-0.2,1.1-0.7,1.4c-0.5,0.3-1.1,0.5-2,0.5
							c-0.1,0-0.2,0-0.4,0c-0.1,0-0.3,0-0.4,0l-0.4,1.7l0,0c0,0.2,0,0.3,0,0.3c0,0.2,0.1,0.3,0.2,0.4c0.1,0.1,0.3,0.1,0.6,0.1h0.1
							l0,0.2h-2.7l0-0.2c0.2,0,0.4-0.1,0.5-0.2c0.1-0.1,0.2-0.4,0.3-0.9l0.9-3.8c0-0.1,0-0.2,0-0.2c0-0.1,0-0.1,0-0.2
							c0-0.2-0.1-0.3-0.2-0.4c-0.1-0.1-0.3-0.1-0.6-0.2l0.1-0.2H92.7z M96.8,28.2c0.2-0.4,0.4-0.7,0.6-0.8c0.2-0.2,0.4-0.3,0.6-0.3
							c0.2,0,0.3,0.1,0.4,0.1c0.1,0.1,0.1,0.2,0.1,0.4c0,0.2,0,0.3-0.1,0.5c-0.1,0.1-0.2,0.2-0.4,0.2c-0.1,0-0.2-0.1-0.3-0.2
							c-0.1-0.1-0.2-0.2-0.3-0.2c-0.2,0-0.4,0.2-0.6,0.5c-0.2,0.3-0.4,0.8-0.5,1.3l-0.4,1.7h-1l0.8-3.4c0,0,0-0.1,0-0.1
							c0,0,0-0.1,0-0.1c0-0.1,0-0.2-0.1-0.2c-0.1,0-0.2-0.1-0.4-0.1h-0.1l0.1-0.2c0.3,0,0.6-0.1,0.9-0.1c0.3,0,0.6-0.1,0.8-0.1
							L96.8,28.2z M100.2,31.2c0.2,0,0.4-0.1,0.5-0.2c0.2-0.1,0.3-0.3,0.4-0.5c0.2-0.4,0.3-0.8,0.4-1.2c0.1-0.4,0.2-0.8,0.2-1.1
							c0-0.3-0.1-0.5-0.2-0.6c-0.1-0.1-0.3-0.2-0.5-0.2c-0.2,0-0.3,0.1-0.4,0.2c-0.1,0.1-0.3,0.3-0.4,0.5c-0.2,0.4-0.4,0.8-0.5,1.2
							c-0.1,0.4-0.2,0.8-0.2,1.1c0,0.3,0.1,0.5,0.2,0.7C99.9,31.2,100,31.2,100.2,31.2z M100.2,31.6c-0.5,0-0.9-0.2-1.2-0.5
							c-0.3-0.3-0.5-0.7-0.5-1.2c0-0.4,0.1-0.7,0.2-1.1c0.1-0.3,0.4-0.7,0.6-1c0.2-0.3,0.5-0.5,0.8-0.6c0.3-0.1,0.6-0.2,0.9-0.2
							c0.5,0,0.9,0.2,1.2,0.5c0.3,0.3,0.4,0.7,0.4,1.2c0,0.4-0.1,0.7-0.2,1.1c-0.2,0.4-0.4,0.7-0.7,1c-0.3,0.3-0.5,0.4-0.8,0.6
							C100.8,31.5,100.5,31.6,100.2,31.6z M104.1,27.6h-0.7l0-0.3c0.5-0.1,0.8-0.3,1.1-0.5c0.3-0.2,0.5-0.6,0.6-1h0.3l-0.3,1.4h0.9
							l-0.1,0.4h-0.9l-0.7,3l0,0.1l0,0c0,0.1,0,0.1,0,0.2c0,0,0.1,0.1,0.1,0.1c0.1,0,0.2-0.1,0.3-0.2c0.1-0.1,0.2-0.3,0.4-0.5
							l0.2,0.1c-0.2,0.4-0.5,0.7-0.7,0.9c-0.2,0.2-0.5,0.3-0.8,0.3c-0.2,0-0.4-0.1-0.5-0.2c-0.1-0.1-0.1-0.3-0.1-0.5
							c0,0,0-0.1,0-0.2c0-0.1,0-0.1,0-0.2L104.1,27.6z M107.2,29.4c0.5-0.1,1-0.4,1.3-0.7c0.3-0.3,0.5-0.6,0.5-0.9
							c0-0.1,0-0.2-0.1-0.3c-0.1-0.1-0.2-0.1-0.3-0.1c-0.3,0-0.5,0.2-0.8,0.5C107.6,28.3,107.4,28.7,107.2,29.4z M109.3,30.6
							c-0.3,0.3-0.6,0.6-0.9,0.8c-0.3,0.2-0.6,0.3-1,0.3c-0.4,0-0.8-0.1-1-0.4c-0.2-0.3-0.4-0.6-0.4-1.1c0-0.3,0.1-0.7,0.2-1.1
							c0.1-0.4,0.4-0.7,0.6-1c0.3-0.3,0.6-0.6,0.9-0.7c0.3-0.2,0.7-0.3,1-0.3c0.3,0,0.5,0.1,0.7,0.2c0.2,0.1,0.3,0.3,0.3,0.6
							c0,0.4-0.2,0.8-0.6,1c-0.4,0.3-1.1,0.6-2.1,0.8v0.1c0,0.1,0,0.2,0,0.3c0,0.3,0.1,0.6,0.2,0.7c0.1,0.2,0.3,0.2,0.6,0.2
							c0.2,0,0.4-0.1,0.6-0.2c0.2-0.1,0.4-0.3,0.7-0.5L109.3,30.6z M110.9,31.5c-0.3,0.1-0.4,0.1-0.6,0.3c-0.1,0.1-0.2,0.3-0.2,0.5
							c0,0.2,0.1,0.4,0.3,0.6c0.2,0.1,0.5,0.2,0.8,0.2c0.4,0,0.7-0.1,0.9-0.3c0.3-0.2,0.4-0.4,0.4-0.6c0-0.3-0.5-0.5-1.4-0.7
							L110.9,31.5z M112.1,27.3c-0.2,0-0.4,0.2-0.6,0.5c-0.2,0.3-0.3,0.7-0.3,1.2c0,0.2,0,0.4,0.1,0.5c0.1,0.1,0.2,0.2,0.4,0.2
							c0.1,0,0.2,0,0.3-0.1c0.1-0.1,0.2-0.2,0.3-0.4c0.1-0.2,0.1-0.4,0.2-0.6c0-0.2,0.1-0.4,0.1-0.6c0-0.2,0-0.3-0.1-0.4
							C112.4,27.4,112.3,27.3,112.1,27.3z M111.4,29.9c-0.1,0.1-0.2,0.1-0.2,0.2c-0.1,0.1-0.1,0.1-0.1,0.2c0,0.1,0.2,0.3,0.6,0.3
							c0.1,0,0.1,0,0.2,0c0.5,0.1,0.9,0.2,1,0.4c0.2,0.2,0.3,0.4,0.3,0.7c0,0.5-0.2,0.8-0.6,1.1c-0.4,0.3-0.9,0.4-1.5,0.4
							c-0.5,0-0.9-0.1-1.2-0.3c-0.3-0.2-0.4-0.4-0.4-0.7c0-0.2,0.1-0.5,0.3-0.6c0.2-0.2,0.4-0.3,0.8-0.4c-0.1-0.1-0.1-0.1-0.2-0.2
							c0-0.1-0.1-0.2-0.1-0.3c0-0.2,0.1-0.3,0.2-0.5c0.1-0.2,0.3-0.3,0.6-0.4c-0.3-0.1-0.5-0.3-0.6-0.5c-0.1-0.2-0.2-0.5-0.2-0.7
							c0-0.4,0.2-0.8,0.5-1.2c0.3-0.3,0.8-0.5,1.2-0.5c0.1,0,0.3,0,0.4,0c0.2,0,0.3,0.1,0.5,0.1l1,0l-0.1,0.6h-0.4
							c0,0.1,0,0.2,0,0.2c0,0.1,0,0.1,0,0.2c0,0.5-0.2,0.9-0.5,1.2s-0.8,0.5-1.4,0.5L111.4,29.9L111.4,29.9z M115.1,29.4
							c0.5-0.1,1-0.4,1.3-0.7c0.3-0.3,0.5-0.6,0.5-0.9c0-0.1,0-0.2-0.1-0.3c-0.1-0.1-0.2-0.1-0.3-0.1c-0.3,0-0.5,0.2-0.8,0.5
							C115.5,28.3,115.3,28.7,115.1,29.4z M117.2,30.6c-0.3,0.3-0.6,0.6-0.9,0.8c-0.3,0.2-0.6,0.3-1,0.3c-0.4,0-0.8-0.1-1-0.4
							c-0.2-0.3-0.4-0.6-0.4-1.1c0-0.3,0.1-0.7,0.2-1.1c0.1-0.4,0.4-0.7,0.6-1c0.3-0.3,0.6-0.6,0.9-0.7c0.3-0.2,0.7-0.3,1-0.3
							c0.3,0,0.5,0.1,0.7,0.2c0.2,0.1,0.3,0.3,0.3,0.6c0,0.4-0.2,0.8-0.6,1c-0.4,0.3-1.1,0.6-2.1,0.8v0.1c0,0.1,0,0.2,0,0.3
							c0,0.3,0.1,0.6,0.2,0.7c0.1,0.2,0.3,0.2,0.6,0.2c0.2,0,0.4-0.1,0.6-0.2c0.2-0.1,0.4-0.3,0.7-0.5L117.2,30.6z M118.5,30.3
							c0.2,0,0.3,0.1,0.4,0.2c0.1,0.1,0.2,0.3,0.2,0.5c0,0.2-0.1,0.3-0.2,0.5c-0.1,0.1-0.3,0.2-0.5,0.2c-0.2,0-0.3-0.1-0.4-0.2
							c-0.1-0.1-0.2-0.3-0.2-0.5c0-0.2,0.1-0.3,0.2-0.4C118.2,30.4,118.4,30.3,118.5,30.3z M125.7,26.6l-1.5,2.5h2L125.7,26.6z
							 M126.1,25.1h0.3l1.2,5.6c0,0.1,0.1,0.2,0.1,0.3c0,0.1,0.1,0.1,0.2,0.2c0,0,0.1,0,0.2,0.1c0.1,0,0.1,0,0.2,0.1l0,0.2h-2.6
							l0-0.2h0.1c0.2,0,0.4,0,0.5-0.1c0.1-0.1,0.2-0.2,0.2-0.4c0,0,0,0,0-0.1l0-0.1l-0.2-1H124l-0.5,0.9c0,0,0,0.1-0.1,0.1
							c0,0,0,0.1,0,0.2c0,0.2,0.1,0.3,0.2,0.4c0.1,0.1,0.3,0.1,0.4,0.1h0.1l-0.1,0.2h-2.2l0-0.2c0.2,0,0.4-0.1,0.5-0.2
							c0.2-0.1,0.3-0.3,0.4-0.5L126.1,25.1z M128.7,31.5l1.3-5.4c0,0,0-0.1,0-0.1c0,0,0-0.1,0-0.1c0-0.1,0-0.2-0.1-0.2
							c-0.1,0-0.2-0.1-0.4-0.1h-0.1l0.1-0.2c0.3,0,0.6-0.1,0.9-0.1c0.3,0,0.6-0.1,0.8-0.1l-0.7,3.1c0.2-0.4,0.5-0.6,0.8-0.8
							c0.3-0.2,0.6-0.3,0.9-0.3c0.3,0,0.5,0.1,0.6,0.2c0.1,0.1,0.2,0.3,0.2,0.6c0,0.1,0,0.1,0,0.2c0,0.1,0,0.2-0.1,0.3l-0.5,2l0,0.1
							c0,0.2-0.1,0.3-0.1,0.3c0,0.1,0,0.1,0,0.1c0,0,0.1,0.1,0.1,0.1c0.1,0,0.2,0,0.3-0.1c0.1-0.1,0.2-0.2,0.4-0.4l0.2,0.1
							c-0.2,0.4-0.4,0.6-0.7,0.8c-0.2,0.2-0.5,0.3-0.7,0.3c-0.2,0-0.3-0.1-0.4-0.2c-0.1-0.1-0.2-0.3-0.2-0.5c0-0.1,0-0.1,0-0.2
							c0-0.1,0-0.2,0.1-0.4l0.6-2.1l0-0.1c0-0.1,0-0.2,0-0.2c0-0.1,0-0.2-0.1-0.3c-0.1-0.1-0.1-0.1-0.3-0.1c-0.3,0-0.6,0.2-0.9,0.6
							c-0.3,0.4-0.5,0.9-0.7,1.4l-0.4,1.8H128.7z M135.3,31.2c0.2,0,0.4-0.1,0.5-0.2c0.2-0.1,0.3-0.3,0.4-0.5
							c0.2-0.4,0.3-0.8,0.4-1.2c0.1-0.4,0.2-0.8,0.2-1.1c0-0.3-0.1-0.5-0.2-0.6c-0.1-0.1-0.3-0.2-0.5-0.2c-0.2,0-0.3,0.1-0.4,0.2
							c-0.1,0.1-0.3,0.3-0.4,0.5c-0.2,0.4-0.4,0.8-0.5,1.2c-0.1,0.4-0.2,0.8-0.2,1.1c0,0.3,0.1,0.5,0.2,0.7
							C134.9,31.2,135.1,31.2,135.3,31.2z M135.3,31.6c-0.5,0-0.9-0.2-1.2-0.5c-0.3-0.3-0.5-0.7-0.5-1.2c0-0.4,0.1-0.7,0.2-1.1
							c0.1-0.3,0.4-0.7,0.6-1c0.2-0.3,0.5-0.5,0.8-0.6c0.3-0.1,0.6-0.2,0.9-0.2c0.5,0,0.9,0.2,1.2,0.5c0.3,0.3,0.4,0.7,0.4,1.2
							c0,0.4-0.1,0.7-0.2,1.1c-0.2,0.4-0.4,0.7-0.7,1c-0.3,0.3-0.5,0.4-0.8,0.6C135.9,31.5,135.6,31.6,135.3,31.6z M140,28.2
							c0.2-0.4,0.4-0.7,0.6-0.8c0.2-0.2,0.4-0.3,0.6-0.3c0.2,0,0.3,0.1,0.4,0.1c0.1,0.1,0.1,0.2,0.1,0.4c0,0.2,0,0.3-0.1,0.5
							c-0.1,0.1-0.2,0.2-0.4,0.2c-0.1,0-0.2-0.1-0.3-0.2c-0.1-0.1-0.2-0.2-0.2-0.2c-0.2,0-0.4,0.2-0.6,0.5c-0.2,0.3-0.4,0.8-0.5,1.3
							l-0.4,1.7h-1l0.8-3.4c0,0,0-0.1,0-0.1c0,0,0-0.1,0-0.1c0-0.1,0-0.2-0.1-0.2c-0.1,0-0.2-0.1-0.4-0.1h-0.1l0.1-0.2
							c0.3,0,0.6-0.1,0.9-0.1c0.3,0,0.6-0.1,0.8-0.1L140,28.2z M143.4,28.2c0.2-0.4,0.4-0.7,0.6-0.8c0.2-0.2,0.4-0.3,0.6-0.3
							c0.2,0,0.3,0.1,0.4,0.1c0.1,0.1,0.1,0.2,0.1,0.4c0,0.2,0,0.3-0.1,0.5c-0.1,0.1-0.2,0.2-0.4,0.2c-0.1,0-0.2-0.1-0.3-0.2
							c-0.1-0.1-0.2-0.2-0.2-0.2c-0.2,0-0.4,0.2-0.6,0.5c-0.2,0.3-0.4,0.8-0.5,1.3l-0.4,1.7h-1l0.8-3.4c0,0,0-0.1,0-0.1
							c0,0,0-0.1,0-0.1c0-0.1,0-0.2-0.1-0.2c-0.1,0-0.2-0.1-0.4-0.1h-0.1l0.1-0.2c0.3,0,0.6-0.1,0.9-0.1c0.3,0,0.6-0.1,0.8-0.1
							L143.4,28.2z M146.1,30.3c0,0.2,0,0.4,0.1,0.5c0.1,0.1,0.2,0.2,0.4,0.2c0.1,0,0.3-0.1,0.4-0.2c0.1-0.1,0.3-0.3,0.4-0.5
							c0.2-0.4,0.3-0.7,0.4-1.2c0.1-0.4,0.2-0.8,0.2-1.1c0-0.2,0-0.3-0.1-0.4s-0.2-0.2-0.3-0.2c-0.1,0-0.3,0.1-0.4,0.2
							c-0.1,0.1-0.3,0.3-0.4,0.5c-0.2,0.3-0.4,0.7-0.5,1.1C146.2,29.6,146.1,30,146.1,30.3z M148.5,30.6L148.5,30.6
							c0,0.1,0,0.1,0,0.1c0,0.1,0,0.1,0,0.2c0,0,0.1,0.1,0.1,0.1c0.1,0,0.2,0,0.3-0.1c0.1-0.1,0.2-0.2,0.3-0.4l0.2,0.1
							c-0.2,0.4-0.4,0.6-0.6,0.8c-0.2,0.2-0.4,0.3-0.7,0.3c-0.2,0-0.3-0.1-0.4-0.2c-0.1-0.1-0.1-0.3-0.1-0.4c0-0.1,0-0.1,0-0.2
							c0-0.1,0-0.1,0-0.2c-0.2,0.3-0.4,0.6-0.7,0.8c-0.3,0.2-0.5,0.3-0.8,0.3c-0.3,0-0.6-0.1-0.8-0.4c-0.2-0.2-0.3-0.6-0.3-1
							c0-0.4,0.1-0.7,0.2-1.1c0.1-0.4,0.3-0.7,0.6-1.1c0.3-0.3,0.5-0.6,0.8-0.8c0.3-0.2,0.5-0.3,0.8-0.3c0.2,0,0.3,0,0.5,0.1
							c0.1,0.1,0.2,0.2,0.3,0.3l0.1-0.5h0.9L148.5,30.6z M150.4,30.3c0.2,0,0.3,0.1,0.4,0.2c0.1,0.1,0.2,0.3,0.2,0.5
							c0,0.2-0.1,0.3-0.2,0.5c-0.1,0.1-0.3,0.2-0.5,0.2c-0.2,0-0.3-0.1-0.4-0.2c-0.1-0.1-0.2-0.3-0.2-0.5c0-0.2,0.1-0.3,0.2-0.4
							C150.1,30.4,150.3,30.3,150.4,30.3z"/>
						<path class="st1" d="M68.6,26.6l-1.5,2.5h2L68.6,26.6z M69.1,25.1h0.3l1.1,5.6c0,0.1,0.1,0.2,0.1,0.3c0,0.1,0.1,0.1,0.2,0.2
							c0,0,0.1,0,0.2,0.1c0.1,0,0.1,0,0.2,0.1l0,0.2h-2.6l0-0.2h0.1c0.2,0,0.4,0,0.5-0.1c0.1-0.1,0.2-0.2,0.2-0.4c0,0,0,0,0-0.1
							c0,0,0-0.1,0-0.1l-0.2-1h-2.3l-0.5,0.9c0,0,0,0.1-0.1,0.1c0,0,0,0.1,0,0.2c0,0.2,0.1,0.3,0.2,0.4c0.1,0.1,0.3,0.1,0.4,0.1h0.1
							l-0.1,0.2h-2.2l0-0.2c0.2,0,0.4-0.1,0.5-0.2c0.2-0.1,0.3-0.3,0.4-0.5L69.1,25.1z"/>
						<path class="st1" d="M72.8,25.6c0-0.2,0.1-0.3,0.2-0.4c0.1-0.1,0.3-0.2,0.4-0.2c0.2,0,0.3,0.1,0.4,0.2
							c0.1,0.1,0.2,0.3,0.2,0.4c0,0.2-0.1,0.3-0.2,0.4c-0.1,0.1-0.3,0.2-0.4,0.2c-0.2,0-0.3-0.1-0.4-0.2
							C72.9,25.9,72.8,25.8,72.8,25.6z M73.6,30.4c-0.2,0.4-0.4,0.7-0.7,0.9c-0.2,0.2-0.5,0.3-0.8,0.3c-0.2,0-0.3-0.1-0.4-0.2
							c-0.1-0.1-0.1-0.3-0.1-0.5c0,0,0-0.1,0-0.2c0-0.1,0-0.1,0-0.2l0.7-2.6c0,0,0-0.1,0-0.1c0,0,0-0.1,0-0.1c0-0.1,0-0.2-0.1-0.2
							c-0.1,0-0.2-0.1-0.4-0.1h-0.1l0-0.2c0.3,0,0.6-0.1,0.9-0.1c0.3,0,0.6-0.1,0.8-0.1l-0.9,3.5c0,0.1,0,0.1,0,0.1c0,0,0,0.1,0,0.1
							c0,0.1,0,0.1,0,0.1c0,0,0.1,0.1,0.1,0.1c0.1,0,0.1,0,0.2-0.1c0.1-0.1,0.2-0.2,0.3-0.5L73.6,30.4z"/>
						<path class="st1" d="M73.9,31.6l0.2-1.5h0.2c0.1,0.4,0.2,0.7,0.4,0.8c0.2,0.2,0.4,0.3,0.7,0.3c0.2,0,0.3-0.1,0.5-0.2
							c0.1-0.1,0.2-0.2,0.2-0.4c0-0.2-0.2-0.5-0.6-0.9c-0.1-0.1-0.1-0.1-0.2-0.2c-0.3-0.3-0.5-0.6-0.6-0.8c-0.1-0.2-0.1-0.4-0.1-0.6
							c0-0.3,0.1-0.6,0.4-0.8c0.2-0.2,0.5-0.3,0.9-0.3c0.2,0,0.5,0,0.7,0.1c0.2,0.1,0.4,0.1,0.4,0.1c0,0,0.1,0,0.1-0.1
							c0,0,0.1-0.1,0.1-0.2h0.2l-0.2,1.4H77c-0.1-0.3-0.2-0.6-0.3-0.8c-0.2-0.2-0.4-0.3-0.6-0.3c-0.2,0-0.3,0-0.4,0.1
							c-0.1,0.1-0.2,0.2-0.2,0.3c0,0.1,0,0.2,0.1,0.3c0,0.1,0.1,0.2,0.2,0.3c0,0,0.1,0.1,0.2,0.2c0.7,0.7,1,1.3,1,1.7
							c0,0.4-0.1,0.7-0.4,0.9c-0.3,0.2-0.6,0.4-1,0.4c-0.2,0-0.4,0-0.7-0.1c-0.2-0.1-0.4-0.1-0.4-0.1c-0.1,0-0.1,0-0.1,0.1
							c0,0-0.1,0.1-0.1,0.2H73.9z"/>
						<path class="st1" d="M77.8,30.6l1.1-4.6c0,0,0,0,0,0c0-0.1,0-0.1,0-0.2c0-0.1,0-0.2-0.1-0.2c-0.1,0-0.2-0.1-0.4-0.1h-0.1
							l0-0.2c0.3,0,0.5-0.1,0.8-0.1c0.3,0,0.6-0.1,0.9-0.2l-1.3,5.5c0,0,0,0.1,0,0.1c0,0,0,0.1,0,0.1c0,0.1,0,0.1,0,0.1
							c0,0,0.1,0,0.1,0c0.1,0,0.2,0,0.2-0.1c0.1-0.1,0.2-0.3,0.3-0.5l0.2,0.1c-0.2,0.4-0.4,0.7-0.7,0.9c-0.2,0.2-0.5,0.3-0.7,0.3
							c-0.2,0-0.3-0.1-0.4-0.1c-0.1-0.1-0.1-0.2-0.1-0.4c0-0.1,0-0.1,0-0.2C77.8,30.7,77.8,30.7,77.8,30.6z"/>
						<path class="st1" d="M81.2,30.3c0,0.2,0,0.4,0.1,0.5c0.1,0.1,0.2,0.2,0.4,0.2c0.1,0,0.3-0.1,0.4-0.2c0.1-0.1,0.3-0.3,0.4-0.5
							c0.2-0.4,0.3-0.7,0.4-1.2c0.1-0.4,0.2-0.8,0.2-1.1c0-0.2,0-0.3-0.1-0.4s-0.2-0.2-0.3-0.2c-0.1,0-0.3,0.1-0.4,0.2
							c-0.1,0.1-0.3,0.3-0.4,0.5c-0.2,0.3-0.4,0.7-0.5,1.1C81.2,29.6,81.2,30,81.2,30.3z M83.6,30.6C83.6,30.6,83.6,30.6,83.6,30.6
							c0,0.1,0,0.1,0,0.1c0,0.1,0,0.1,0,0.2c0,0,0.1,0.1,0.1,0.1c0.1,0,0.2,0,0.3-0.1c0.1-0.1,0.2-0.2,0.3-0.4l0.2,0.1
							c-0.2,0.4-0.4,0.6-0.6,0.8c-0.2,0.2-0.4,0.3-0.7,0.3c-0.2,0-0.3-0.1-0.4-0.2s-0.1-0.3-0.1-0.4c0-0.1,0-0.1,0-0.2
							c0-0.1,0-0.1,0-0.2c-0.2,0.3-0.4,0.6-0.7,0.8c-0.3,0.2-0.5,0.3-0.8,0.3c-0.3,0-0.6-0.1-0.8-0.4c-0.2-0.2-0.3-0.6-0.3-1
							c0-0.4,0.1-0.7,0.2-1.1c0.1-0.4,0.3-0.7,0.6-1.1c0.3-0.3,0.5-0.6,0.8-0.8c0.3-0.2,0.5-0.3,0.8-0.3c0.2,0,0.3,0,0.5,0.1
							c0.1,0.1,0.2,0.2,0.3,0.3l0.1-0.5h0.9L83.6,30.6z"/>
						<path class="st1" d="M85.5,30.3c0.2,0,0.3,0.1,0.4,0.2c0.1,0.1,0.2,0.3,0.2,0.5c0,0.2-0.1,0.3-0.2,0.5
							c-0.1,0.1-0.3,0.2-0.5,0.2c-0.2,0-0.3-0.1-0.4-0.2c-0.1-0.1-0.2-0.3-0.2-0.5c0-0.2,0.1-0.3,0.2-0.4
							C85.2,30.4,85.3,30.3,85.5,30.3z"/>
						<path class="st1" d="M91.7,28.2c0.1,0,0.2,0,0.2,0c0.1,0,0.1,0,0.2,0c0.6,0,1-0.1,1.4-0.4c0.3-0.3,0.5-0.7,0.5-1.2
							c0-0.3-0.1-0.6-0.3-0.8c-0.2-0.2-0.5-0.3-0.8-0.3c-0.2,0-0.4,0-0.4,0.1c-0.1,0.1-0.2,0.2-0.2,0.5L91.7,28.2z M92.7,25.2
							c0.9,0,1.5,0.1,1.9,0.4c0.4,0.3,0.6,0.6,0.6,1.2c0,0.6-0.2,1.1-0.7,1.4c-0.5,0.3-1.1,0.5-2,0.5c-0.1,0-0.2,0-0.4,0
							c-0.1,0-0.3,0-0.4,0l-0.4,1.7c0,0,0,0,0,0c0,0.2,0,0.3,0,0.3c0,0.2,0.1,0.3,0.2,0.4c0.1,0.1,0.3,0.1,0.6,0.1h0.1l0,0.2h-2.7
							l0-0.2c0.2,0,0.4-0.1,0.5-0.2c0.1-0.1,0.2-0.4,0.3-0.9l0.9-3.8c0-0.1,0-0.2,0-0.2c0-0.1,0-0.1,0-0.2c0-0.2-0.1-0.3-0.2-0.4
							c-0.1-0.1-0.3-0.1-0.6-0.2l0.1-0.2H92.7z"/>
						<path class="st1" d="M96.8,28.2c0.2-0.4,0.4-0.7,0.6-0.8c0.2-0.2,0.4-0.3,0.6-0.3c0.2,0,0.3,0.1,0.4,0.1
							c0.1,0.1,0.1,0.2,0.1,0.4c0,0.2,0,0.3-0.1,0.5c-0.1,0.1-0.2,0.2-0.4,0.2c-0.1,0-0.2-0.1-0.3-0.2c-0.1-0.1-0.2-0.2-0.3-0.2
							c-0.2,0-0.4,0.2-0.6,0.5c-0.2,0.3-0.4,0.8-0.5,1.3l-0.4,1.7h-1l0.8-3.4c0,0,0-0.1,0-0.1c0,0,0-0.1,0-0.1c0-0.1,0-0.2-0.1-0.2
							c-0.1,0-0.2-0.1-0.4-0.1h-0.1l0.1-0.2c0.3,0,0.6-0.1,0.9-0.1c0.3,0,0.6-0.1,0.8-0.1L96.8,28.2z"/>
						<path class="st1" d="M100.2,31.2c0.2,0,0.4-0.1,0.5-0.2c0.2-0.1,0.3-0.3,0.4-0.5c0.2-0.4,0.3-0.8,0.4-1.2
							c0.1-0.4,0.2-0.8,0.2-1.1c0-0.3-0.1-0.5-0.2-0.6c-0.1-0.1-0.3-0.2-0.5-0.2c-0.2,0-0.3,0.1-0.4,0.2c-0.1,0.1-0.3,0.3-0.4,0.5
							c-0.2,0.4-0.4,0.8-0.5,1.2c-0.1,0.4-0.2,0.8-0.2,1.1c0,0.3,0.1,0.5,0.2,0.7C99.9,31.2,100,31.2,100.2,31.2z M100.2,31.6
							c-0.5,0-0.9-0.2-1.2-0.5c-0.3-0.3-0.5-0.7-0.5-1.2c0-0.4,0.1-0.7,0.2-1.1c0.1-0.3,0.4-0.7,0.6-1c0.2-0.3,0.5-0.5,0.8-0.6
							c0.3-0.1,0.6-0.2,0.9-0.2c0.5,0,0.9,0.2,1.2,0.5c0.3,0.3,0.4,0.7,0.4,1.2c0,0.4-0.1,0.7-0.2,1.1c-0.2,0.4-0.4,0.7-0.7,1
							c-0.3,0.3-0.5,0.4-0.8,0.6C100.8,31.5,100.5,31.6,100.2,31.6z"/>
						<path class="st1" d="M104.1,27.6h-0.7l0-0.3c0.5-0.1,0.8-0.3,1.1-0.5c0.3-0.2,0.5-0.6,0.6-1h0.3l-0.3,1.4h0.9l-0.1,0.4h-0.9
							l-0.7,3c0,0,0,0.1,0,0.1c0,0,0,0,0,0c0,0.1,0,0.1,0,0.2c0,0,0.1,0.1,0.1,0.1c0.1,0,0.2-0.1,0.3-0.2c0.1-0.1,0.2-0.3,0.4-0.5
							l0.2,0.1c-0.2,0.4-0.5,0.7-0.7,0.9c-0.2,0.2-0.5,0.3-0.8,0.3c-0.2,0-0.4-0.1-0.5-0.2c-0.1-0.1-0.1-0.3-0.1-0.5
							c0,0,0-0.1,0-0.2c0-0.1,0-0.1,0-0.2L104.1,27.6z"/>
						<path class="st1" d="M107.2,29.4c0.5-0.1,1-0.4,1.3-0.7c0.3-0.3,0.5-0.6,0.5-0.9c0-0.1,0-0.2-0.1-0.3
							c-0.1-0.1-0.2-0.1-0.3-0.1c-0.3,0-0.5,0.2-0.8,0.5C107.6,28.3,107.4,28.7,107.2,29.4z M109.3,30.6c-0.3,0.3-0.6,0.6-0.9,0.8
							c-0.3,0.2-0.6,0.3-1,0.3c-0.4,0-0.8-0.1-1-0.4c-0.2-0.3-0.4-0.6-0.4-1.1c0-0.3,0.1-0.7,0.2-1.1c0.1-0.4,0.4-0.7,0.6-1
							c0.3-0.3,0.6-0.6,0.9-0.7c0.3-0.2,0.7-0.3,1-0.3c0.3,0,0.5,0.1,0.7,0.2c0.2,0.1,0.3,0.3,0.3,0.6c0,0.4-0.2,0.8-0.6,1
							c-0.4,0.3-1.1,0.6-2.1,0.8c0,0,0,0,0,0.1c0,0.1,0,0.2,0,0.3c0,0.3,0.1,0.6,0.2,0.7c0.1,0.2,0.3,0.2,0.6,0.2
							c0.2,0,0.4-0.1,0.6-0.2c0.2-0.1,0.4-0.3,0.7-0.5L109.3,30.6z"/>
						<path class="st1" d="M110.9,31.5c-0.3,0.1-0.4,0.1-0.6,0.3c-0.1,0.1-0.2,0.3-0.2,0.5c0,0.2,0.1,0.4,0.3,0.6
							c0.2,0.1,0.5,0.2,0.8,0.2c0.4,0,0.7-0.1,0.9-0.3c0.3-0.2,0.4-0.4,0.4-0.6c0-0.3-0.5-0.5-1.4-0.7C111,31.5,111,31.5,110.9,31.5
							z M112.1,27.3c-0.2,0-0.4,0.2-0.6,0.5c-0.2,0.3-0.3,0.7-0.3,1.2c0,0.2,0,0.4,0.1,0.5c0.1,0.1,0.2,0.2,0.4,0.2
							c0.1,0,0.2,0,0.3-0.1c0.1-0.1,0.2-0.2,0.3-0.4c0.1-0.2,0.1-0.4,0.2-0.6c0-0.2,0.1-0.4,0.1-0.6c0-0.2,0-0.3-0.1-0.4
							C112.4,27.4,112.3,27.3,112.1,27.3z M111.4,29.9c-0.1,0.1-0.2,0.1-0.2,0.2c-0.1,0.1-0.1,0.1-0.1,0.2c0,0.1,0.2,0.3,0.6,0.3
							c0.1,0,0.1,0,0.2,0c0.5,0.1,0.9,0.2,1,0.4c0.2,0.2,0.3,0.4,0.3,0.7c0,0.5-0.2,0.8-0.6,1.1c-0.4,0.3-0.9,0.4-1.5,0.4
							c-0.5,0-0.9-0.1-1.2-0.3c-0.3-0.2-0.4-0.4-0.4-0.7c0-0.2,0.1-0.5,0.3-0.6c0.2-0.2,0.4-0.3,0.8-0.4c-0.1-0.1-0.1-0.1-0.2-0.2
							c0-0.1-0.1-0.2-0.1-0.3c0-0.2,0.1-0.3,0.2-0.5c0.1-0.2,0.3-0.3,0.6-0.4c-0.3-0.1-0.5-0.3-0.6-0.5c-0.1-0.2-0.2-0.5-0.2-0.7
							c0-0.4,0.2-0.8,0.5-1.2c0.3-0.3,0.8-0.5,1.2-0.5c0.1,0,0.3,0,0.4,0c0.2,0,0.3,0.1,0.5,0.1l1,0l-0.1,0.6h-0.4
							c0,0.1,0,0.2,0,0.2c0,0.1,0,0.1,0,0.2c0,0.5-0.2,0.9-0.5,1.2s-0.8,0.5-1.4,0.5C111.6,30,111.6,30,111.4,29.9
							C111.5,30,111.5,29.9,111.4,29.9z"/>
						<path class="st1" d="M115.1,29.4c0.5-0.1,1-0.4,1.3-0.7c0.3-0.3,0.5-0.6,0.5-0.9c0-0.1,0-0.2-0.1-0.3
							c-0.1-0.1-0.2-0.1-0.3-0.1c-0.3,0-0.5,0.2-0.8,0.5C115.5,28.3,115.3,28.7,115.1,29.4z M117.2,30.6c-0.3,0.3-0.6,0.6-0.9,0.8
							c-0.3,0.2-0.6,0.3-1,0.3c-0.4,0-0.8-0.1-1-0.4c-0.2-0.3-0.4-0.6-0.4-1.1c0-0.3,0.1-0.7,0.2-1.1c0.1-0.4,0.4-0.7,0.6-1
							c0.3-0.3,0.6-0.6,0.9-0.7c0.3-0.2,0.7-0.3,1-0.3c0.3,0,0.5,0.1,0.7,0.2c0.2,0.1,0.3,0.3,0.3,0.6c0,0.4-0.2,0.8-0.6,1
							c-0.4,0.3-1.1,0.6-2.1,0.8c0,0,0,0,0,0.1c0,0.1,0,0.2,0,0.3c0,0.3,0.1,0.6,0.2,0.7c0.1,0.2,0.3,0.2,0.6,0.2
							c0.2,0,0.4-0.1,0.6-0.2c0.2-0.1,0.4-0.3,0.7-0.5L117.2,30.6z"/>
						<path class="st1" d="M118.5,30.3c0.2,0,0.3,0.1,0.4,0.2c0.1,0.1,0.2,0.3,0.2,0.5c0,0.2-0.1,0.3-0.2,0.5
							c-0.1,0.1-0.3,0.2-0.5,0.2c-0.2,0-0.3-0.1-0.4-0.2c-0.1-0.1-0.2-0.3-0.2-0.5c0-0.2,0.1-0.3,0.2-0.4
							C118.2,30.4,118.4,30.3,118.5,30.3z"/>
						<path class="st1" d="M125.7,26.6l-1.5,2.5h2L125.7,26.6z M126.1,25.1h0.3l1.2,5.6c0,0.1,0.1,0.2,0.1,0.3
							c0,0.1,0.1,0.1,0.2,0.2c0,0,0.1,0,0.2,0.1c0.1,0,0.1,0,0.2,0.1l0,0.2h-2.6l0-0.2h0.1c0.2,0,0.4,0,0.5-0.1
							c0.1-0.1,0.2-0.2,0.2-0.4c0,0,0,0,0-0.1c0,0,0-0.1,0-0.1l-0.2-1H124l-0.5,0.9c0,0,0,0.1-0.1,0.1c0,0,0,0.1,0,0.2
							c0,0.2,0.1,0.3,0.2,0.4c0.1,0.1,0.3,0.1,0.4,0.1h0.1l-0.1,0.2h-2.2l0-0.2c0.2,0,0.4-0.1,0.5-0.2c0.2-0.1,0.3-0.3,0.4-0.5
							L126.1,25.1z"/>
						<path class="st1" d="M128.7,31.5l1.3-5.4c0,0,0-0.1,0-0.1c0,0,0-0.1,0-0.1c0-0.1,0-0.2-0.1-0.2c-0.1,0-0.2-0.1-0.4-0.1h-0.1
							l0.1-0.2c0.3,0,0.6-0.1,0.9-0.1c0.3,0,0.6-0.1,0.8-0.1l-0.7,3.1c0.2-0.4,0.5-0.6,0.8-0.8c0.3-0.2,0.6-0.3,0.9-0.3
							c0.3,0,0.5,0.1,0.6,0.2c0.1,0.1,0.2,0.3,0.2,0.6c0,0.1,0,0.1,0,0.2c0,0.1,0,0.2-0.1,0.3l-0.5,2c0,0,0,0.1,0,0.1
							c0,0.2-0.1,0.3-0.1,0.3c0,0.1,0,0.1,0,0.1c0,0,0.1,0.1,0.1,0.1c0.1,0,0.2,0,0.3-0.1c0.1-0.1,0.2-0.2,0.4-0.4l0.2,0.1
							c-0.2,0.4-0.4,0.6-0.7,0.8c-0.2,0.2-0.5,0.3-0.7,0.3c-0.2,0-0.3-0.1-0.4-0.2c-0.1-0.1-0.2-0.3-0.2-0.5c0-0.1,0-0.1,0-0.2
							c0-0.1,0-0.2,0.1-0.4l0.6-2.1c0,0,0,0,0-0.1c0-0.1,0-0.2,0-0.2c0-0.1,0-0.2-0.1-0.3c-0.1-0.1-0.1-0.1-0.3-0.1
							c-0.3,0-0.6,0.2-0.9,0.6c-0.3,0.4-0.5,0.9-0.7,1.4l-0.4,1.8H128.7z"/>
						<path class="st1" d="M135.3,31.2c0.2,0,0.4-0.1,0.5-0.2c0.2-0.1,0.3-0.3,0.4-0.5c0.2-0.4,0.3-0.8,0.4-1.2
							c0.1-0.4,0.2-0.8,0.2-1.1c0-0.3-0.1-0.5-0.2-0.6c-0.1-0.1-0.3-0.2-0.5-0.2c-0.2,0-0.3,0.1-0.4,0.2c-0.1,0.1-0.3,0.3-0.4,0.5
							c-0.2,0.4-0.4,0.8-0.5,1.2c-0.1,0.4-0.2,0.8-0.2,1.1c0,0.3,0.1,0.5,0.2,0.7C134.9,31.2,135.1,31.2,135.3,31.2z M135.3,31.6
							c-0.5,0-0.9-0.2-1.2-0.5c-0.3-0.3-0.5-0.7-0.5-1.2c0-0.4,0.1-0.7,0.2-1.1c0.1-0.3,0.4-0.7,0.6-1c0.2-0.3,0.5-0.5,0.8-0.6
							c0.3-0.1,0.6-0.2,0.9-0.2c0.5,0,0.9,0.2,1.2,0.5c0.3,0.3,0.4,0.7,0.4,1.2c0,0.4-0.1,0.7-0.2,1.1c-0.2,0.4-0.4,0.7-0.7,1
							c-0.3,0.3-0.5,0.4-0.8,0.6C135.9,31.5,135.6,31.6,135.3,31.6z"/>
						<path class="st1" d="M140,28.2c0.2-0.4,0.4-0.7,0.6-0.8c0.2-0.2,0.4-0.3,0.6-0.3c0.2,0,0.3,0.1,0.4,0.1
							c0.1,0.1,0.1,0.2,0.1,0.4c0,0.2,0,0.3-0.1,0.5c-0.1,0.1-0.2,0.2-0.4,0.2c-0.1,0-0.2-0.1-0.3-0.2c-0.1-0.1-0.2-0.2-0.2-0.2
							c-0.2,0-0.4,0.2-0.6,0.5c-0.2,0.3-0.4,0.8-0.5,1.3l-0.4,1.7h-1l0.8-3.4c0,0,0-0.1,0-0.1c0,0,0-0.1,0-0.1c0-0.1,0-0.2-0.1-0.2
							c-0.1,0-0.2-0.1-0.4-0.1h-0.1l0.1-0.2c0.3,0,0.6-0.1,0.9-0.1c0.3,0,0.6-0.1,0.8-0.1L140,28.2z"/>
						<path class="st1" d="M143.4,28.2c0.2-0.4,0.4-0.7,0.6-0.8c0.2-0.2,0.4-0.3,0.6-0.3c0.2,0,0.3,0.1,0.4,0.1
							c0.1,0.1,0.1,0.2,0.1,0.4c0,0.2,0,0.3-0.1,0.5c-0.1,0.1-0.2,0.2-0.4,0.2c-0.1,0-0.2-0.1-0.3-0.2c-0.1-0.1-0.2-0.2-0.2-0.2
							c-0.2,0-0.4,0.2-0.6,0.5c-0.2,0.3-0.4,0.8-0.5,1.3l-0.4,1.7h-1l0.8-3.4c0,0,0-0.1,0-0.1c0,0,0-0.1,0-0.1c0-0.1,0-0.2-0.1-0.2
							c-0.1,0-0.2-0.1-0.4-0.1h-0.1l0.1-0.2c0.3,0,0.6-0.1,0.9-0.1c0.3,0,0.6-0.1,0.8-0.1L143.4,28.2z"/>
						<path class="st1" d="M146.1,30.3c0,0.2,0,0.4,0.1,0.5c0.1,0.1,0.2,0.2,0.4,0.2c0.1,0,0.3-0.1,0.4-0.2c0.1-0.1,0.3-0.3,0.4-0.5
							c0.2-0.4,0.3-0.7,0.4-1.2c0.1-0.4,0.2-0.8,0.2-1.1c0-0.2,0-0.3-0.1-0.4s-0.2-0.2-0.3-0.2c-0.1,0-0.3,0.1-0.4,0.2
							c-0.1,0.1-0.3,0.3-0.4,0.5c-0.2,0.3-0.4,0.7-0.5,1.1C146.2,29.6,146.1,30,146.1,30.3z M148.5,30.6
							C148.5,30.6,148.5,30.6,148.5,30.6c0,0.1,0,0.1,0,0.1c0,0.1,0,0.1,0,0.2c0,0,0.1,0.1,0.1,0.1c0.1,0,0.2,0,0.3-0.1
							c0.1-0.1,0.2-0.2,0.3-0.4l0.2,0.1c-0.2,0.4-0.4,0.6-0.6,0.8c-0.2,0.2-0.4,0.3-0.7,0.3c-0.2,0-0.3-0.1-0.4-0.2
							c-0.1-0.1-0.1-0.3-0.1-0.4c0-0.1,0-0.1,0-0.2c0-0.1,0-0.1,0-0.2c-0.2,0.3-0.4,0.6-0.7,0.8c-0.3,0.2-0.5,0.3-0.8,0.3
							c-0.3,0-0.6-0.1-0.8-0.4c-0.2-0.2-0.3-0.6-0.3-1c0-0.4,0.1-0.7,0.2-1.1c0.1-0.4,0.3-0.7,0.6-1.1c0.3-0.3,0.5-0.6,0.8-0.8
							c0.3-0.2,0.5-0.3,0.8-0.3c0.2,0,0.3,0,0.5,0.1c0.1,0.1,0.2,0.2,0.3,0.3l0.1-0.5h0.9L148.5,30.6z"/>
						<path class="st1" d="M150.4,30.3c0.2,0,0.3,0.1,0.4,0.2c0.1,0.1,0.2,0.3,0.2,0.5c0,0.2-0.1,0.3-0.2,0.5
							c-0.1,0.1-0.3,0.2-0.5,0.2c-0.2,0-0.3-0.1-0.4-0.2c-0.1-0.1-0.2-0.3-0.2-0.5c0-0.2,0.1-0.3,0.2-0.4
							C150.1,30.4,150.3,30.3,150.4,30.3z"/>
					</g>
				</g>
			</g>
		</g>
	</g>
	<g>
		<path class="st1" d="M55.5,15.9h1.3L56,13.5l0-0.3L55.8,13l-0.1-0.2l-0.1-0.3l0-0.2l0-0.3l-0.1-0.2v-0.2l0,0.2l-0.1,0.3l0,0.2
			l0,0.3l0,0.3L55.1,13l-0.1,0.2L55,13.5l-0.8,2.4H55.5z M55.5,8.4h5l4.1,12.6H58l-0.5-1.7h-2h-2.1L53,21.1h-6.2h-0.4l0.4-1.2
			l3.7-11.4H55.5z M92,17.7h0.2l0.2,0l0.2,0l0.2-0.1l0.2-0.1l0.1-0.1l0.1-0.1l0.1-0.2l0.1-0.1l0.1-0.2l0.1-0.2l0-0.2l0.1-0.2l0-0.2
			v-0.3l0-0.3l0-0.3v-0.3l0-0.3l0-0.2l-0.1-0.2l-0.1-0.2l-0.1-0.2l-0.1-0.1l-0.1-0.2l-0.1-0.1l-0.1-0.1l-0.2-0.1l-0.2-0.1l-0.2,0
			h-0.2H92h-0.2h-0.2l-0.2,0l-0.2,0.1l-0.2,0.1l-0.1,0.1l-0.1,0.1l-0.1,0.2l-0.1,0.1l-0.1,0.2l-0.1,0.2l-0.1,0.2l0,0.2l0,0.3v0.3V15
			v0.3v0.3l0,0.2l0.1,0.2l0.1,0.2l0.1,0.2l0.1,0.2l0.1,0.1l0.1,0.2l0.1,0.1l0.1,0.1l0.2,0.1l0.2,0.1l0.2,0l0.2,0H92z M92,8l1,0
			l1,0.1h0.4L95,8.3l0.4,0.1l0.4,0.1l0.4,0.1l0.4,0.1L97,8.8L97.3,9l0.3,0.1l0.3,0.2l0.3,0.2l0.3,0.2l0.2,0.2l0.2,0.2l0.2,0.2
			l0.2,0.2l0.2,0.3l0.1,0.2l0.2,0.3l0.1,0.3l0.1,0.3l0.1,0.3l0,0.4l0.1,0.3l0,0.3l0,0.4v0.4v0.4v0.4v0.4l0,0.4l0,0.4l-0.1,0.4l0,0.3
			l-0.1,0.3l-0.1,0.3L100,18l-0.2,0.3l-0.1,0.3l-0.2,0.2l-0.2,0.2L99,19.4l-0.2,0.2l-0.2,0.2L98.2,20l-0.3,0.2l-0.3,0.2l-0.3,0.1
			L97,20.7l-0.3,0.1l-0.4,0.1l-0.4,0.1l-0.4,0.1l-0.4,0l-0.5,0.1l-0.4,0l-1,0.1h-1H91l-1-0.1l-0.5,0L89,21.2l-0.4,0l-0.4-0.1
			l-0.4-0.1l-0.4-0.1L87,20.7l-0.3-0.1l-0.3-0.1l-0.3-0.2L85.8,20l-0.3-0.2l-0.2-0.2L85,19.4l-0.2-0.2l-0.2-0.2l-0.2-0.2l-0.1-0.3
			L84.1,18l-0.1-0.3l-0.1-0.3l-0.1-0.3l-0.1-0.3l-0.1-0.4l0-0.4v-0.4l0-0.4v-0.4v-0.4l0-0.4v-0.4l0-0.3l0.1-0.3l0.1-0.4l0.1-0.3
			l0.1-0.3l0.1-0.3l0.1-0.3l0.1-0.2l0.2-0.3l0.2-0.2l0.2-0.2l0.2-0.2l0.2-0.2l0.3-0.2l0.3-0.2l0.3-0.2L86.7,9L87,8.8l0.3-0.1
			l0.4-0.1l0.4-0.1l0.4-0.1L89,8.3l0.5-0.1H90l1-0.1L92,8z M46.8,14h0.4v3.8h-0.4h-7.1v3.2h-6.5V8.4h13.6h0.4v4.4h-0.4h-7.1V14H46.8
			z M126.3,15.9h1.3l-0.8-2.4l0-0.3l-0.1-0.2l0-0.2l0-0.3l0-0.2l-0.1-0.3l0-0.2l0-0.2v0l0,0.3l0,0.3l0,0.2l0,0.3l-0.1,0.3l-0.1,0.2
			l-0.1,0.2l-0.1,0.2l-0.8,2.4H126.3z M126.3,8.4h5l4.1,12.6h-6.6l-0.5-1.7h-2h-2l-0.5,1.7h-6.5l4.1-12.6H126.3z M65.5,21.1V8.4H72
			l2.4,3.5l0.2,0.3l0.1,0.2l0.1,0.2l0.2,0.2l0.2,0.4l0.2,0.4v-0.4v-0.5v-0.2v-0.3v-0.3v-0.4V8.4h6.2v12.6H76l-3.3-4.2l-0.3-0.4
			L72.1,16l-0.2-0.4l-0.2-0.4v0.3l0,0.3V16v0.3v0.5v0.3v4H65.5z M116.2,8.6v3.8l-0.9-0.1l-0.8-0.1l-0.7,0l-0.6-0.1h-0.5l-0.5,0h-0.5
			h-0.5h-0.7h-0.6l-0.4,0l-0.3,0l-0.2,0.1l-0.1,0.1l-0.1,0v0.1l0,0v0.1v0l0,0.1v0.1l0.1,0l0.1,0.1l0.2,0.1l0.2,0h0.3l0.3,0l0.4,0
			h0.3h0.3h0.3h0.2h0.6l0.6,0.1l0.6,0l0.5,0.1l0.5,0.1l0.4,0.1l0.4,0.2l0.3,0.2l0.2,0.2l0.2,0.3l0.2,0.3l0.2,0.3l0.1,0.3l0,0.4
			l0.1,0.4v0.5v0.3v0.2l-0.1,0.3v0.2l-0.1,0.2l0,0.3l-0.1,0.2l-0.1,0.2l-0.1,0.2l-0.1,0.2l-0.2,0.2l-0.1,0.2l-0.2,0.1l-0.2,0.2
			l-0.2,0.1l-0.2,0.1l-0.5,0.3l-0.6,0.2l-0.6,0.2l-0.7,0.2l-0.7,0.1l-0.8,0.1l-0.9,0l-0.9,0h-0.8l-0.8,0l-0.8,0l-0.9,0l-0.8-0.1
			l-0.8-0.1l-0.9-0.1l-0.8-0.1v-3.6l0.9,0.1l0.9,0.1l0.8,0.1l0.8,0.1l0.8,0l0.7,0.1h0.7h0.6h0.4h0.3l0.2,0l0.2,0l0.1-0.1l0.1,0
			l0-0.1v-0.1v-0.1v-0.1l-0.1,0l-0.1-0.1l-0.1,0l-0.1,0l-0.2,0h-0.2H109h-0.3h-0.3l-0.5,0h-0.5l-0.4-0.1h-0.4l-0.3,0l-0.6-0.1
			l-0.5-0.1l-0.4-0.1l-0.4-0.1l-0.4-0.1l-0.3-0.2l-0.3-0.2l-0.3-0.2l-0.2-0.2l-0.2-0.2l-0.1-0.3l-0.1-0.3l-0.1-0.4l-0.1-0.3l0-0.4
			v-0.4v-0.3l0-0.3V12l0.1-0.3l0.1-0.3l0.1-0.2l0-0.2l0.1-0.2l0.1-0.2l0.2-0.2l0.1-0.2l0.1-0.2l0.2-0.2l0.1-0.2l0.2-0.1l0.2-0.1
			l0.2-0.1l0.3-0.1l0.3-0.1l0.3-0.1l0.7-0.2l0.7-0.1l0.8-0.1l0.9-0.1l1,0h1h0.7l0.8,0h0.7l0.8,0.1l0.8,0l0.8,0.1l0.8,0.1L116.2,8.6z
			"/>
		<g>
			<path class="st0" d="M25.2,7.5l-0.1-0.2L25.1,7l-0.2-0.5l-0.2-0.2l-0.1-0.2L24,5.1l-0.6-0.6l-0.6-0.4L22.5,4l-0.2-0.1l-0.8-0.3
				l-1.4-0.2h-12l-0.3,0L6.5,3.6L5.3,4.1L4.6,4.6L3.8,5.4L3.2,6.3l-0.4,1L2.7,7.8L2.6,8.1l0,0.3L2.5,8.7v5.8h4.3
				c0.2-3.9,3.4-7,7.3-7c3.9,0,7.1,3.1,7.3,7h4V9l0-0.6L25.2,7.5z"/>
			<path class="st0" d="M14.1,22.1c-3.9,0-7.1-3.1-7.3-7H2.5v5.6l0,0.3l0,0.2v0.2l0.1,0.3l0.1,0.6l0.3,0.8l0.4,0.7l0.3,0.4L4,24.4
				l0.1,0.2L4.6,25l0.8,0.6L6.5,26l1.4,0.2h12.2l1.4-0.3l1-0.4l0.9-0.6l0.6-0.6l0.1-0.2l0.3-0.4l0.2-0.3l0.1-0.2l0.1-0.2l0.2-0.6
				l0-0.2l0.1-0.3l0.1-0.8v-6.1h-4C21.2,19,18,22.1,14.1,22.1z"/>
			<path class="st0" d="M27.2,7.9V7.5l-0.1-0.4l-0.1-0.4L27,6.5l-0.1-0.3l-0.2-0.4l-0.2-0.3l-0.2-0.3l-0.2-0.3l-0.2-0.3l-0.2-0.3
				l-0.2-0.3l-0.2-0.3l-0.3-0.3l-0.1-0.1l-0.1-0.1l-0.3-0.2l-0.3-0.2l-0.3-0.2l-0.3-0.2l-0.3-0.2l-0.3-0.2L23,2.1l-0.4-0.2l-0.4-0.1
				l-0.3-0.1l-0.4-0.1l-0.4-0.1l-0.4-0.1h-0.4h-0.4H7.8H7.4H7.1L6.7,1.6L6.4,1.6L6,1.7L5.7,1.8L5.4,1.9L5,2.1L4.7,2.2L4.4,2.4
				L4.1,2.5L3.8,2.7L3.6,2.9L3.3,3.1L3.1,3.3L3,3.4L2.8,3.6L2.5,3.8L2.3,4.1L2.1,4.3L1.9,4.6L1.7,4.9L1.5,5.2L1.4,5.5L1.3,5.8
				L1.1,6.2L1,6.5L0.9,6.8L0.8,7.2L0.8,7.5L0.7,7.9L0.7,8.2v0.4V21v0.4l0.1,0.3l0.1,0.4l0.1,0.4l0.1,0.3L1,23.1l0.1,0.3l0.2,0.4
				L1.4,24l0.2,0.3l0.2,0.3L1.9,25l0.2,0.3l0.2,0.3l0.3,0.3L2.8,26L3,26.2h0.1l0.3,0.3l0.3,0.2l0.3,0.3L4.1,27l0.3,0.2l0.3,0.2
				L5,27.5l0.4,0.2l0.3,0.1L6,27.8l0.4,0.1L6.7,28L7.1,28h0.4h0.4h12.4h0.4h0.4l0.4-0.1l0.4-0.1l0.4-0.1l0.3-0.1l0.4-0.1l0.4-0.2
				l0.3-0.1l0.3-0.2l0.3-0.2l0.3-0.2l0.3-0.3l0.3-0.2l0.3-0.3l0.3-0.3l0.3-0.3l0.2-0.3l0.2-0.3l0.2-0.3l0.2-0.3l0.2-0.3l0.2-0.3
				l0.2-0.3l0.2-0.4l0.1-0.3l0.1-0.4l0.1-0.3l0.1-0.4v-0.4l0.1-0.3V21V8.6V8.2L27.2,7.9z M26.6,8.2v0.4V21v0.4v0.3l0,0.4l-0.1,0.3
				l-0.1,0.3l-0.1,0.3l-0.1,0.3l-0.1,0.3L26,23.8L25.8,24l-0.2,0.3l-0.2,0.3l-0.2,0.3l-0.2,0.3l-0.2,0.2l-0.1,0.1l-0.1,0.1l-0.2,0.2
				L24.3,26L24,26.1l-0.3,0.2l-0.3,0.2l-0.3,0.2L23,26.8l-0.3,0.2L22.4,27l-0.3,0.1l-0.3,0.1l-0.3,0.1l-0.4,0.1l-0.3,0.1l-0.4,0.1
				h-0.3H7.8H7.5l-0.3-0.1l-0.4-0.1l-0.3-0.1l-0.3-0.1l-0.3-0.1L5.6,27l-0.3-0.1L5,26.8l-0.3-0.2l-0.3-0.2l-0.3-0.2L4,26.1L3.7,26
				l-0.3-0.3l-0.2-0.2l-0.2-0.2L3,25.3l-0.2-0.2l-0.2-0.3l-0.2-0.3l-0.2-0.3L2.1,24L2,23.8l-0.2-0.3l-0.1-0.3l-0.1-0.3l-0.1-0.3
				l-0.1-0.3L1.4,22l-0.1-0.4l0-0.3V21V8.6V8.2l0-0.3l0.1-0.3l0.1-0.4L1.5,7l0.1-0.3l0.1-0.3l0.1-0.3L2,5.8l0.1-0.3l0.2-0.3L2.4,5
				l0.2-0.3l0.2-0.3L3,4.3l0.1-0.1L3.3,4l0.2-0.2l0.3-0.2L4,3.4l0.3-0.2l0.3-0.2l0.3-0.2L5,2.8l0.3-0.2l0.3-0.1l0.3-0.1l0.3,0
				l0.3-0.1l0.3-0.1l0.4-0.1h0.3l0.4-0.1h12.4l0.3,0.1h0.4l0.3,0.1l0.4,0.1l0.3,0.1l0.3,0l0.3,0.1l0.3,0.1L23,2.8l0.3,0.2l0.3,0.2
				l0.3,0.2L24,3.4l0.3,0.2l0.3,0.2L24.7,4l0.1,0.1l0.1,0.2l0.2,0.2l0.2,0.3L25.5,5l0.2,0.3l0.2,0.3L26,5.8l0.2,0.3l0.1,0.3l0.1,0.3
				L26.4,7l0.1,0.3l0.1,0.4l0,0.3V8.2z"/>
			<path class="st0" d="M20.5,14.5c-0.2-3.4-2.9-6.1-6.4-6.1c-3.4,0-6.2,2.7-6.4,6.1c0,0.1,0,0.2,0,0.3c0,0.1,0,0.2,0,0.3
				c0.1,3.4,2.9,6.1,6.4,6.1c3.4,0,6.2-2.7,6.4-6.1c0-0.1,0-0.2,0-0.3C20.5,14.7,20.5,14.6,20.5,14.5z"/>
		</g>
	</g>
</g>
</svg>
