<?xml version="1.0" encoding="utf-8"?>
<!-- Generator: Adobe Illustrator 19.1.0, SVG Export Plug-In . SVG Version: 6.00 Build 0)  -->
<svg version="1.1" id="Layer_1" xmlns="http://www.w3.org/2000/svg" xmlns:xlink="http://www.w3.org/1999/xlink" x="0px" y="0px"
	 viewBox="0 0 235 50" style="enable-background:new 0 0 235 50;" xml:space="preserve">
<style type="text/css">
	.st0{fill:#696F75;}
	.st1{fill-rule:evenodd;clip-rule:evenodd;fill:#696F75;}
	.st2{fill-rule:evenodd;clip-rule:evenodd;fill:#2A66B1;}
	.st3{fill:#ED7F22;}
	.st4{fill:#2A66B1;}
	.st5{fill:url(#SVGID_1_);}
</style>
<g>
	<g>
		<g>
			<g>
				<g>
					<path class="st0" d="M108.3,36.7h0.5l1.8,8.5c0,0.2,0.1,0.3,0.2,0.4c0.1,0.1,0.2,0.2,0.3,0.2c0.1,0,0.2,0.1,0.3,0.1
						c0.1,0,0.2,0.1,0.4,0.1l-0.1,0.4h-3.9l0-0.4h0.1c0.3,0,0.6-0.1,0.8-0.2c0.2-0.1,0.3-0.4,0.3-0.6c0,0,0-0.1,0-0.1l0-0.2
						l-0.3-1.5H105l-0.8,1.5c0,0.1-0.1,0.1-0.1,0.2c0,0.1,0,0.2,0,0.2c0,0.2,0.1,0.4,0.2,0.5c0.2,0.1,0.4,0.2,0.7,0.2h0.1l-0.1,0.4
						h-3.3l0.1-0.4c0.3,0,0.6-0.1,0.8-0.3c0.2-0.2,0.5-0.4,0.7-0.8L108.3,36.7z M107.6,39l-2.3,3.8h3L107.6,39z M114.1,37.6
						c0-0.2,0.1-0.5,0.3-0.6c0.2-0.2,0.4-0.3,0.7-0.3c0.3,0,0.5,0.1,0.7,0.3c0.2,0.2,0.3,0.4,0.3,0.7c0,0.2-0.1,0.5-0.3,0.7
						c-0.2,0.2-0.4,0.3-0.6,0.3c-0.2,0-0.5-0.1-0.7-0.3C114.2,38.1,114.1,37.8,114.1,37.6z M115.4,44.9c-0.3,0.6-0.6,1-1,1.3
						c-0.4,0.3-0.8,0.5-1.2,0.5c-0.3,0-0.5-0.1-0.7-0.2c-0.2-0.2-0.2-0.4-0.2-0.7c0-0.1,0-0.1,0-0.2c0-0.1,0-0.2,0.1-0.3l1.1-4
						c0-0.1,0-0.1,0-0.2c0-0.1,0-0.1,0-0.2c0-0.2-0.1-0.3-0.2-0.4c-0.1-0.1-0.3-0.1-0.6-0.1h-0.1l0.1-0.3c0.5-0.1,1-0.1,1.4-0.2
						c0.5-0.1,0.9-0.1,1.3-0.2l-1.4,5.3c0,0.1,0,0.2,0,0.2c0,0,0,0.1,0,0.1c0,0.1,0,0.2,0.1,0.2c0,0.1,0.1,0.1,0.2,0.1
						c0.1,0,0.2-0.1,0.4-0.2c0.1-0.1,0.3-0.4,0.5-0.7L115.4,44.9z M115.8,46.7l0.3-2.2h0.4c0.1,0.6,0.3,1,0.6,1.3
						c0.3,0.3,0.6,0.4,1.1,0.4c0.3,0,0.5-0.1,0.7-0.2c0.2-0.2,0.3-0.4,0.3-0.6c0-0.3-0.3-0.8-0.9-1.4l-0.2-0.3
						c-0.5-0.5-0.8-0.9-0.9-1.2c-0.1-0.3-0.2-0.6-0.2-0.9c0-0.5,0.2-0.9,0.5-1.2c0.4-0.3,0.8-0.5,1.4-0.5c0.4,0,0.7,0.1,1.1,0.2
						c0.4,0.1,0.6,0.2,0.6,0.2c0.1,0,0.1,0,0.2-0.1c0.1-0.1,0.1-0.1,0.1-0.3h0.3l-0.3,2.1h-0.4c-0.1-0.5-0.3-0.9-0.5-1.2
						c-0.3-0.3-0.6-0.4-0.9-0.4c-0.2,0-0.5,0.1-0.6,0.2c-0.2,0.1-0.2,0.3-0.2,0.5c0,0.1,0,0.3,0.1,0.4c0.1,0.2,0.2,0.3,0.3,0.4
						c0.1,0.1,0.2,0.2,0.3,0.3c1.1,1.1,1.6,2,1.6,2.6c0,0.6-0.2,1-0.6,1.4c-0.4,0.4-0.9,0.5-1.6,0.5c-0.3,0-0.7-0.1-1.1-0.2
						c-0.4-0.1-0.6-0.2-0.6-0.2c-0.1,0-0.2,0-0.2,0.1c-0.1,0.1-0.1,0.2-0.2,0.3H115.8z M121.7,45.2l1.7-7c0,0,0,0,0-0.1
						c0-0.1,0-0.2,0-0.3c0-0.2-0.1-0.3-0.2-0.4c-0.1-0.1-0.3-0.1-0.6-0.1h-0.1l0.1-0.3c0.4,0,0.8-0.1,1.3-0.1
						c0.4-0.1,0.9-0.1,1.4-0.2l-2,8.4c0,0.1,0,0.1,0,0.2c0,0.1,0,0.1,0,0.1c0,0.1,0,0.2,0.1,0.2c0,0,0.1,0.1,0.2,0.1
						c0.1,0,0.2-0.1,0.4-0.2c0.1-0.1,0.3-0.4,0.5-0.7l0.3,0.1c-0.3,0.6-0.6,1-1,1.3c-0.4,0.3-0.7,0.5-1.1,0.5
						c-0.3,0-0.5-0.1-0.7-0.2c-0.2-0.2-0.2-0.4-0.2-0.7c0-0.1,0-0.2,0-0.3C121.7,45.4,121.7,45.3,121.7,45.2z M126.9,44.7
						c0,0.3,0.1,0.6,0.2,0.8c0.1,0.2,0.4,0.3,0.6,0.3c0.2,0,0.4-0.1,0.7-0.3c0.2-0.2,0.4-0.5,0.6-0.8c0.3-0.5,0.5-1.1,0.7-1.8
						c0.2-0.7,0.3-1.2,0.3-1.7c0-0.3-0.1-0.5-0.2-0.7s-0.3-0.2-0.5-0.2c-0.2,0-0.4,0.1-0.7,0.3c-0.2,0.2-0.4,0.5-0.6,0.8
						c-0.3,0.5-0.6,1.1-0.8,1.7C127,43.7,126.9,44.2,126.9,44.7z M130.6,45.1l0,0.1c0,0,0,0.1,0,0.1c0,0.1,0,0.2,0.1,0.3
						c0,0.1,0.1,0.1,0.2,0.1c0.1,0,0.2-0.1,0.4-0.2c0.1-0.1,0.3-0.4,0.5-0.7L132,45c-0.3,0.5-0.6,1-1,1.3c-0.4,0.3-0.7,0.5-1,0.5
						c-0.3,0-0.4-0.1-0.6-0.2s-0.2-0.4-0.2-0.7c0-0.1,0-0.2,0-0.3c0-0.1,0-0.2,0.1-0.4c-0.3,0.5-0.7,0.9-1,1.2
						c-0.4,0.3-0.8,0.4-1.2,0.4c-0.5,0-0.9-0.2-1.2-0.6c-0.3-0.4-0.5-0.9-0.5-1.5c0-0.6,0.1-1.1,0.3-1.7c0.2-0.6,0.5-1.1,0.9-1.7
						c0.4-0.5,0.8-0.9,1.2-1.2c0.4-0.3,0.8-0.4,1.3-0.4c0.3,0,0.5,0.1,0.7,0.2c0.2,0.1,0.4,0.3,0.5,0.5l0.2-0.7h1.4L130.6,45.1z
						 M133.5,44.7c0.3,0,0.5,0.1,0.7,0.3c0.2,0.2,0.3,0.4,0.3,0.7c0,0.3-0.1,0.5-0.3,0.7c-0.2,0.2-0.4,0.3-0.7,0.3
						c-0.3,0-0.5-0.1-0.7-0.3c-0.2-0.2-0.3-0.4-0.3-0.7c0-0.3,0.1-0.5,0.3-0.7C133,44.8,133.2,44.7,133.5,44.7z M143,41.6
						c0.1,0,0.2,0,0.3,0c0.1,0,0.2,0,0.3,0c0.9,0,1.6-0.2,2.1-0.7c0.5-0.5,0.8-1.1,0.8-1.8c0-0.5-0.2-0.9-0.5-1.3
						c-0.3-0.3-0.8-0.5-1.3-0.5c-0.3,0-0.5,0.1-0.7,0.2c-0.1,0.1-0.2,0.4-0.3,0.7L143,41.6z M144.6,36.9c1.3,0,2.3,0.2,2.9,0.6
						c0.6,0.4,0.9,1,0.9,1.8c0,0.9-0.4,1.7-1.1,2.2c-0.7,0.5-1.8,0.8-3.1,0.8c-0.2,0-0.4,0-0.6,0c-0.2,0-0.4,0-0.7-0.1l-0.6,2.6
						l0,0.1c0,0.2-0.1,0.4-0.1,0.5c0,0.3,0.1,0.5,0.3,0.7c0.2,0.1,0.5,0.2,0.8,0.2h0.1l0,0.3h-4.2l0.1-0.3c0.4,0,0.7-0.2,0.8-0.4
						c0.2-0.2,0.4-0.7,0.5-1.4l1.3-5.8c0-0.1,0-0.2,0.1-0.3c0-0.1,0-0.2,0-0.3c0-0.2-0.1-0.4-0.3-0.6c-0.2-0.1-0.5-0.2-0.9-0.3
						l0.1-0.3H144.6z M150.8,41.5c0.3-0.6,0.7-1,1-1.3c0.3-0.3,0.6-0.4,0.9-0.4c0.3,0,0.5,0.1,0.6,0.2c0.2,0.2,0.2,0.4,0.2,0.6
						c0,0.3-0.1,0.5-0.2,0.7c-0.1,0.2-0.3,0.3-0.6,0.3c-0.1,0-0.3-0.1-0.5-0.2c-0.2-0.2-0.3-0.2-0.4-0.2c-0.3,0-0.5,0.3-0.9,0.8
						c-0.3,0.5-0.6,1.2-0.7,2l-0.6,2.7h-1.5l1.2-5.2c0-0.1,0-0.1,0-0.2c0-0.1,0-0.1,0-0.2c0-0.2-0.1-0.3-0.2-0.4
						c-0.1-0.1-0.3-0.1-0.6-0.1h-0.1l0.1-0.3c0.4,0,0.9-0.1,1.3-0.2c0.4-0.1,0.9-0.1,1.3-0.2L150.8,41.5z M156.1,46.2
						c0.3,0,0.5-0.1,0.8-0.3c0.2-0.2,0.4-0.5,0.6-0.8c0.3-0.6,0.5-1.2,0.7-1.8c0.2-0.6,0.2-1.2,0.2-1.8c0-0.4-0.1-0.8-0.3-1
						c-0.2-0.2-0.4-0.3-0.8-0.3c-0.2,0-0.5,0.1-0.7,0.3c-0.2,0.2-0.4,0.4-0.6,0.8c-0.3,0.6-0.6,1.2-0.8,1.8
						c-0.2,0.7-0.3,1.2-0.3,1.7c0,0.4,0.1,0.8,0.3,1C155.5,46.1,155.8,46.2,156.1,46.2z M156.1,46.7c-0.7,0-1.3-0.2-1.8-0.7
						c-0.5-0.5-0.7-1.1-0.7-1.9c0-0.5,0.1-1.1,0.3-1.6c0.2-0.5,0.6-1,1-1.5c0.4-0.4,0.8-0.7,1.2-0.9c0.4-0.2,0.9-0.3,1.3-0.3
						c0.7,0,1.3,0.2,1.8,0.7c0.5,0.5,0.7,1.1,0.7,1.9c0,0.5-0.1,1.1-0.4,1.7c-0.2,0.6-0.6,1.1-1,1.5c-0.4,0.4-0.8,0.7-1.2,0.9
						C156.9,46.6,156.5,46.7,156.1,46.7z M162,40.5h-1l0.1-0.4c0.7-0.1,1.3-0.4,1.7-0.8c0.4-0.4,0.8-0.9,1-1.5h0.5l-0.5,2.1h1.5
						l-0.1,0.6h-1.4l-1.1,4.6l0,0.1l0,0.1c0,0.1,0,0.2,0.1,0.2c0,0.1,0.1,0.1,0.2,0.1c0.1,0,0.3-0.1,0.5-0.2
						c0.2-0.2,0.4-0.4,0.6-0.8l0.3,0.2c-0.4,0.6-0.7,1.1-1.1,1.4c-0.4,0.3-0.8,0.4-1.2,0.4c-0.3,0-0.5-0.1-0.7-0.2
						c-0.2-0.2-0.2-0.4-0.2-0.7c0-0.1,0-0.1,0-0.2c0-0.1,0-0.2,0.1-0.3L162,40.5z M166.8,43.3c0.8-0.2,1.5-0.6,2-1
						c0.5-0.5,0.7-0.9,0.7-1.4c0-0.2-0.1-0.3-0.2-0.4c-0.1-0.1-0.3-0.2-0.4-0.2c-0.4,0-0.8,0.3-1.2,0.8
						C167.4,41.6,167,42.3,166.8,43.3z M170,45.1c-0.4,0.5-0.9,0.9-1.4,1.2c-0.5,0.3-1,0.4-1.5,0.4c-0.7,0-1.2-0.2-1.5-0.6
						c-0.4-0.4-0.6-0.9-0.6-1.6c0-0.5,0.1-1.1,0.3-1.6c0.2-0.6,0.6-1.1,1-1.5c0.4-0.5,0.9-0.9,1.4-1.1c0.5-0.3,1-0.4,1.5-0.4
						c0.5,0,0.8,0.1,1.1,0.3c0.3,0.2,0.4,0.5,0.4,0.9c0,0.6-0.3,1.2-0.9,1.6c-0.6,0.4-1.7,0.9-3.3,1.3v0.1c0,0.2,0,0.4,0,0.4
						c0,0.5,0.1,0.8,0.3,1.1c0.2,0.3,0.5,0.4,0.8,0.4c0.3,0,0.6-0.1,0.9-0.2c0.3-0.2,0.6-0.4,1-0.8L170,45.1z M172.5,46.5
						c-0.4,0.1-0.7,0.2-0.9,0.4c-0.2,0.2-0.3,0.5-0.3,0.8c0,0.4,0.2,0.7,0.5,0.9c0.3,0.2,0.7,0.3,1.3,0.3c0.6,0,1.1-0.1,1.5-0.4
						c0.4-0.3,0.6-0.6,0.6-0.9c0-0.4-0.7-0.7-2.2-1L172.5,46.5z M174.3,40.2c-0.4,0-0.7,0.2-0.9,0.7c-0.3,0.5-0.4,1.1-0.4,1.8
						c0,0.3,0.1,0.6,0.2,0.8c0.1,0.2,0.3,0.3,0.6,0.3c0.2,0,0.4-0.1,0.5-0.2c0.1-0.1,0.3-0.3,0.4-0.6c0.1-0.3,0.2-0.6,0.3-0.9
						c0.1-0.3,0.1-0.6,0.1-0.9c0-0.3-0.1-0.5-0.2-0.7C174.7,40.3,174.5,40.2,174.3,40.2z M173.3,44.2c-0.1,0.1-0.3,0.2-0.3,0.3
						c-0.1,0.1-0.1,0.2-0.1,0.3c0,0.2,0.3,0.4,1,0.5c0.1,0,0.2,0,0.3,0c0.8,0.2,1.3,0.4,1.6,0.6c0.3,0.2,0.4,0.6,0.4,1.1
						c0,0.7-0.3,1.3-0.9,1.7c-0.6,0.4-1.4,0.7-2.3,0.7c-0.8,0-1.4-0.1-1.9-0.4c-0.5-0.3-0.7-0.7-0.7-1.1c0-0.4,0.1-0.7,0.4-1
						c0.3-0.3,0.7-0.5,1.2-0.7c-0.1-0.1-0.2-0.2-0.2-0.3c-0.1-0.1-0.1-0.2-0.1-0.4c0-0.3,0.1-0.5,0.3-0.8c0.2-0.2,0.5-0.5,0.9-0.6
						c-0.4-0.2-0.7-0.4-0.9-0.7c-0.2-0.3-0.3-0.7-0.3-1.1c0-0.7,0.3-1.3,0.8-1.8c0.5-0.5,1.2-0.7,1.9-0.7c0.2,0,0.4,0,0.7,0.1
						c0.2,0,0.5,0.1,0.8,0.2l1.6-0.1l-0.2,0.9h-0.6c0,0.1,0,0.3,0.1,0.4c0,0.1,0,0.2,0,0.3c0,0.8-0.3,1.4-0.8,1.9
						c-0.6,0.5-1.3,0.7-2.2,0.7l-0.1,0L173.3,44.2z M178.9,43.3c0.8-0.2,1.5-0.6,2-1c0.5-0.5,0.8-0.9,0.8-1.4c0-0.2-0.1-0.3-0.2-0.4
						c-0.1-0.1-0.3-0.2-0.4-0.2c-0.4,0-0.8,0.3-1.2,0.8C179.5,41.6,179.2,42.3,178.9,43.3z M182.1,45.1c-0.4,0.5-0.9,0.9-1.4,1.2
						c-0.5,0.3-1,0.4-1.5,0.4c-0.7,0-1.2-0.2-1.5-0.6c-0.4-0.4-0.6-0.9-0.6-1.6c0-0.5,0.1-1.1,0.3-1.6c0.2-0.6,0.6-1.1,1-1.5
						c0.4-0.5,0.9-0.9,1.4-1.1c0.5-0.3,1-0.4,1.5-0.4c0.5,0,0.8,0.1,1.1,0.3c0.3,0.2,0.4,0.5,0.4,0.9c0,0.6-0.3,1.2-0.9,1.6
						c-0.6,0.4-1.7,0.9-3.3,1.3v0.1c0,0.2,0,0.4,0,0.4c0,0.5,0.1,0.8,0.3,1.1c0.2,0.3,0.5,0.4,0.8,0.4c0.3,0,0.6-0.1,0.9-0.2
						c0.3-0.2,0.6-0.4,1-0.8L182.1,45.1z M184.2,44.7c0.3,0,0.5,0.1,0.7,0.3c0.2,0.2,0.3,0.4,0.3,0.7c0,0.3-0.1,0.5-0.3,0.7
						c-0.2,0.2-0.4,0.3-0.7,0.3c-0.3,0-0.5-0.1-0.7-0.3c-0.2-0.2-0.3-0.4-0.3-0.7c0-0.3,0.1-0.5,0.3-0.7
						C183.7,44.8,183.9,44.7,184.2,44.7z M195.2,39l-2.3,3.8h3L195.2,39z M195.8,36.7h0.5l1.8,8.5c0,0.2,0.1,0.3,0.2,0.4
						c0.1,0.1,0.2,0.2,0.3,0.2c0.1,0,0.1,0.1,0.3,0.1c0.1,0,0.2,0.1,0.4,0.1l-0.1,0.4h-3.9l0-0.4h0.1c0.3,0,0.6-0.1,0.8-0.2
						c0.2-0.1,0.3-0.4,0.3-0.6c0,0,0-0.1,0-0.1l0-0.2l-0.3-1.5h-3.5l-0.8,1.5c0,0.1-0.1,0.1-0.1,0.2c0,0.1,0,0.2,0,0.2
						c0,0.2,0.1,0.4,0.2,0.5c0.2,0.1,0.4,0.2,0.7,0.2h0.1l-0.1,0.4h-3.3l0.1-0.4c0.3,0,0.6-0.1,0.8-0.3c0.2-0.2,0.5-0.4,0.7-0.8
						L195.8,36.7z M199.7,46.5l2-8.3c0-0.1,0-0.1,0-0.2c0-0.1,0-0.1,0-0.1c0-0.2-0.1-0.3-0.2-0.4c-0.1-0.1-0.3-0.1-0.6-0.1h-0.1
						l0.1-0.3c0.5-0.1,1-0.1,1.4-0.2c0.5-0.1,0.9-0.1,1.3-0.2l-1.1,4.7c0.4-0.5,0.8-1,1.2-1.2c0.4-0.3,0.9-0.4,1.4-0.4
						c0.4,0,0.7,0.1,0.9,0.3c0.2,0.2,0.3,0.5,0.3,0.9c0,0.1,0,0.2,0,0.3c0,0.1-0.1,0.3-0.1,0.4l-0.8,3.1l-0.1,0.2
						c-0.1,0.2-0.1,0.4-0.1,0.5c0,0.1,0,0.2,0.1,0.2c0,0.1,0.1,0.1,0.2,0.1c0.1,0,0.3-0.1,0.4-0.2c0.1-0.1,0.3-0.4,0.5-0.7l0.3,0.2
						c-0.3,0.6-0.7,1-1,1.3c-0.3,0.3-0.7,0.4-1.1,0.4c-0.3,0-0.5-0.1-0.7-0.2c-0.2-0.2-0.2-0.4-0.2-0.7c0-0.1,0-0.2,0-0.3
						c0-0.1,0.1-0.3,0.1-0.6l0.9-3.2l0-0.1c0-0.2,0.1-0.3,0.1-0.4c0-0.2,0-0.3-0.1-0.4c-0.1-0.1-0.2-0.1-0.4-0.1
						c-0.4,0-0.9,0.3-1.4,0.9c-0.5,0.6-0.8,1.3-1,2.2l-0.7,2.8H199.7z M209.9,46.2c0.3,0,0.5-0.1,0.8-0.3c0.2-0.2,0.4-0.5,0.6-0.8
						c0.3-0.6,0.5-1.2,0.7-1.8c0.2-0.6,0.2-1.2,0.2-1.8c0-0.4-0.1-0.8-0.3-1c-0.2-0.2-0.4-0.3-0.8-0.3c-0.2,0-0.5,0.1-0.7,0.3
						c-0.2,0.2-0.4,0.4-0.6,0.8c-0.3,0.6-0.6,1.2-0.8,1.8c-0.2,0.7-0.3,1.2-0.3,1.7c0,0.4,0.1,0.8,0.3,1
						C209.3,46.1,209.6,46.2,209.9,46.2z M209.9,46.7c-0.7,0-1.3-0.2-1.8-0.7c-0.5-0.5-0.7-1.1-0.7-1.9c0-0.5,0.1-1.1,0.3-1.6
						c0.2-0.5,0.6-1,1-1.5c0.4-0.4,0.8-0.7,1.2-0.9c0.4-0.2,0.9-0.3,1.3-0.3c0.7,0,1.3,0.2,1.8,0.7c0.5,0.5,0.7,1.1,0.7,1.9
						c0,0.5-0.1,1.1-0.4,1.7c-0.2,0.6-0.6,1.1-1,1.5c-0.4,0.4-0.8,0.7-1.2,0.9C210.7,46.6,210.3,46.7,209.9,46.7z M217,41.5
						c0.3-0.6,0.7-1,1-1.3c0.3-0.3,0.6-0.4,0.9-0.4c0.3,0,0.5,0.1,0.6,0.2c0.2,0.2,0.2,0.4,0.2,0.6c0,0.3-0.1,0.5-0.2,0.7
						c-0.1,0.2-0.3,0.3-0.6,0.3c-0.1,0-0.3-0.1-0.5-0.2c-0.2-0.2-0.3-0.2-0.4-0.2c-0.3,0-0.6,0.3-0.9,0.8c-0.3,0.5-0.6,1.2-0.7,2
						l-0.6,2.7h-1.5l1.2-5.2c0-0.1,0-0.1,0-0.2c0-0.1,0-0.1,0-0.2c0-0.2-0.1-0.3-0.2-0.4c-0.1-0.1-0.3-0.1-0.6-0.1h-0.1l0.1-0.3
						c0.4,0,0.9-0.1,1.3-0.2c0.4-0.1,0.9-0.1,1.3-0.2L217,41.5z M222.3,41.5c0.3-0.6,0.7-1,1-1.3c0.3-0.3,0.6-0.4,0.9-0.4
						c0.3,0,0.5,0.1,0.6,0.2c0.2,0.2,0.2,0.4,0.2,0.6c0,0.3-0.1,0.5-0.2,0.7c-0.1,0.2-0.3,0.3-0.6,0.3c-0.1,0-0.3-0.1-0.5-0.2
						c-0.2-0.2-0.3-0.2-0.4-0.2c-0.3,0-0.6,0.3-0.9,0.8c-0.3,0.5-0.6,1.2-0.7,2l-0.6,2.7h-1.5l1.2-5.2c0-0.1,0-0.1,0-0.2
						c0-0.1,0-0.1,0-0.2c0-0.2-0.1-0.3-0.2-0.4c-0.1-0.1-0.3-0.1-0.6-0.1H220l0.1-0.3c0.4,0,0.9-0.1,1.3-0.2
						c0.4-0.1,0.9-0.1,1.3-0.2L222.3,41.5z M226.4,44.7c0,0.3,0.1,0.6,0.2,0.8c0.1,0.2,0.4,0.3,0.6,0.3c0.2,0,0.4-0.1,0.7-0.3
						c0.2-0.2,0.4-0.5,0.6-0.8c0.3-0.5,0.5-1.1,0.7-1.8c0.2-0.7,0.3-1.2,0.3-1.7c0-0.3-0.1-0.5-0.2-0.7s-0.3-0.2-0.5-0.2
						c-0.2,0-0.4,0.1-0.7,0.3c-0.2,0.2-0.4,0.5-0.6,0.8c-0.3,0.5-0.6,1.1-0.8,1.7C226.5,43.7,226.4,44.2,226.4,44.7z M230.1,45.1
						l0,0.1c0,0,0,0.1,0,0.1c0,0.1,0,0.2,0.1,0.3c0,0.1,0.1,0.1,0.2,0.1c0.1,0,0.2-0.1,0.4-0.2c0.1-0.1,0.3-0.4,0.5-0.7l0.3,0.2
						c-0.3,0.5-0.6,1-1,1.3c-0.3,0.3-0.7,0.5-1,0.5c-0.3,0-0.4-0.1-0.6-0.2c-0.1-0.2-0.2-0.4-0.2-0.7c0-0.1,0-0.2,0-0.3
						c0-0.1,0-0.2,0.1-0.4c-0.3,0.5-0.7,0.9-1,1.2c-0.4,0.3-0.8,0.4-1.2,0.4c-0.5,0-0.9-0.2-1.2-0.6c-0.3-0.4-0.5-0.9-0.5-1.5
						c0-0.6,0.1-1.1,0.3-1.7c0.2-0.6,0.5-1.1,0.9-1.7c0.4-0.5,0.8-0.9,1.2-1.2c0.4-0.3,0.8-0.4,1.3-0.4c0.3,0,0.5,0.1,0.7,0.2
						c0.2,0.1,0.4,0.3,0.5,0.5l0.2-0.7h1.4L230.1,45.1z M233,44.7c0.3,0,0.5,0.1,0.7,0.3c0.2,0.2,0.3,0.4,0.3,0.7
						c0,0.3-0.1,0.5-0.3,0.7c-0.2,0.2-0.4,0.3-0.7,0.3c-0.3,0-0.5-0.1-0.7-0.3c-0.2-0.2-0.3-0.4-0.3-0.7c0-0.3,0.1-0.5,0.3-0.7
						C232.5,44.8,232.8,44.7,233,44.7z"/>
					<path class="st1" d="M107.6,39l-2.3,3.8h3L107.6,39z M108.3,36.7h0.5l1.8,8.5c0,0.2,0.1,0.3,0.2,0.4c0.1,0.1,0.2,0.2,0.3,0.2
						c0.1,0,0.2,0.1,0.3,0.1c0.1,0,0.2,0.1,0.4,0.1l-0.1,0.4h-3.9l0-0.4h0.1c0.3,0,0.6-0.1,0.8-0.2c0.2-0.1,0.3-0.4,0.3-0.6
						c0,0,0-0.1,0-0.1c0,0,0-0.1,0-0.2l-0.3-1.5H105l-0.8,1.5c0,0.1-0.1,0.1-0.1,0.2c0,0.1,0,0.2,0,0.2c0,0.2,0.1,0.4,0.2,0.5
						c0.2,0.1,0.4,0.2,0.7,0.2h0.1l-0.1,0.4h-3.3l0.1-0.4c0.3,0,0.6-0.1,0.8-0.3c0.2-0.2,0.5-0.4,0.7-0.8L108.3,36.7z"/>
					<path class="st1" d="M114.1,37.6c0-0.2,0.1-0.5,0.3-0.6c0.2-0.2,0.4-0.3,0.7-0.3c0.3,0,0.5,0.1,0.7,0.3
						c0.2,0.2,0.3,0.4,0.3,0.7c0,0.2-0.1,0.5-0.3,0.7c-0.2,0.2-0.4,0.3-0.6,0.3c-0.2,0-0.5-0.1-0.7-0.3
						C114.2,38.1,114.1,37.8,114.1,37.6z M115.4,44.9c-0.3,0.6-0.6,1-1,1.3c-0.4,0.3-0.8,0.5-1.2,0.5c-0.3,0-0.5-0.1-0.7-0.2
						c-0.2-0.2-0.2-0.4-0.2-0.7c0-0.1,0-0.1,0-0.2c0-0.1,0-0.2,0.1-0.3l1.1-4c0-0.1,0-0.1,0-0.2c0-0.1,0-0.1,0-0.2
						c0-0.2-0.1-0.3-0.2-0.4c-0.1-0.1-0.3-0.1-0.6-0.1h-0.1l0.1-0.3c0.5-0.1,1-0.1,1.4-0.2c0.5-0.1,0.9-0.1,1.3-0.2l-1.4,5.3
						c0,0.1,0,0.2,0,0.2c0,0,0,0.1,0,0.1c0,0.1,0,0.2,0.1,0.2c0,0.1,0.1,0.1,0.2,0.1c0.1,0,0.2-0.1,0.4-0.2c0.1-0.1,0.3-0.4,0.5-0.7
						L115.4,44.9z"/>
					<path class="st1" d="M115.8,46.7l0.3-2.2h0.4c0.1,0.6,0.3,1,0.6,1.3c0.3,0.3,0.6,0.4,1.1,0.4c0.3,0,0.5-0.1,0.7-0.2
						c0.2-0.2,0.3-0.4,0.3-0.6c0-0.3-0.3-0.8-0.9-1.4c-0.1-0.1-0.2-0.2-0.2-0.3c-0.5-0.5-0.8-0.9-0.9-1.2c-0.1-0.3-0.2-0.6-0.2-0.9
						c0-0.5,0.2-0.9,0.5-1.2c0.4-0.3,0.8-0.5,1.4-0.5c0.4,0,0.7,0.1,1.1,0.2c0.4,0.1,0.6,0.2,0.6,0.2c0.1,0,0.1,0,0.2-0.1
						c0.1-0.1,0.1-0.1,0.1-0.3h0.3l-0.3,2.1h-0.4c-0.1-0.5-0.3-0.9-0.5-1.2c-0.3-0.3-0.6-0.4-0.9-0.4c-0.2,0-0.5,0.1-0.6,0.2
						c-0.2,0.1-0.2,0.3-0.2,0.5c0,0.1,0,0.3,0.1,0.4c0.1,0.2,0.2,0.3,0.3,0.4c0.1,0.1,0.2,0.2,0.3,0.3c1.1,1.1,1.6,2,1.6,2.6
						c0,0.6-0.2,1-0.6,1.4c-0.4,0.4-0.9,0.5-1.6,0.5c-0.3,0-0.7-0.1-1.1-0.2c-0.4-0.1-0.6-0.2-0.6-0.2c-0.1,0-0.2,0-0.2,0.1
						c-0.1,0.1-0.1,0.2-0.2,0.3H115.8z"/>
					<path class="st1" d="M121.7,45.2l1.7-7c0,0,0,0,0-0.1c0-0.1,0-0.2,0-0.3c0-0.2-0.1-0.3-0.2-0.4c-0.1-0.1-0.3-0.1-0.6-0.1h-0.1
						l0.1-0.3c0.4,0,0.8-0.1,1.3-0.1c0.4-0.1,0.9-0.1,1.4-0.2l-2,8.4c0,0.1,0,0.1,0,0.2c0,0.1,0,0.1,0,0.1c0,0.1,0,0.2,0.1,0.2
						c0,0,0.1,0.1,0.2,0.1c0.1,0,0.2-0.1,0.4-0.2c0.1-0.1,0.3-0.4,0.5-0.7l0.3,0.1c-0.3,0.6-0.6,1-1,1.3c-0.4,0.3-0.7,0.5-1.1,0.5
						c-0.3,0-0.5-0.1-0.7-0.2c-0.2-0.2-0.2-0.4-0.2-0.7c0-0.1,0-0.2,0-0.3C121.7,45.4,121.7,45.3,121.7,45.2z"/>
					<path class="st1" d="M126.9,44.7c0,0.3,0.1,0.6,0.2,0.8c0.1,0.2,0.4,0.3,0.6,0.3c0.2,0,0.4-0.1,0.7-0.3
						c0.2-0.2,0.4-0.5,0.6-0.8c0.3-0.5,0.5-1.1,0.7-1.8c0.2-0.7,0.3-1.2,0.3-1.7c0-0.3-0.1-0.5-0.2-0.7s-0.3-0.2-0.5-0.2
						c-0.2,0-0.4,0.1-0.7,0.3c-0.2,0.2-0.4,0.5-0.6,0.8c-0.3,0.5-0.6,1.1-0.8,1.7C127,43.7,126.9,44.2,126.9,44.7z M130.6,45.1
						c0,0.1,0,0.1,0,0.1c0,0,0,0.1,0,0.1c0,0.1,0,0.2,0.1,0.3c0,0.1,0.1,0.1,0.2,0.1c0.1,0,0.2-0.1,0.4-0.2c0.1-0.1,0.3-0.4,0.5-0.7
						L132,45c-0.3,0.5-0.6,1-1,1.3c-0.4,0.3-0.7,0.5-1,0.5c-0.3,0-0.4-0.1-0.6-0.2s-0.2-0.4-0.2-0.7c0-0.1,0-0.2,0-0.3
						c0-0.1,0-0.2,0.1-0.4c-0.3,0.5-0.7,0.9-1,1.2c-0.4,0.3-0.8,0.4-1.2,0.4c-0.5,0-0.9-0.2-1.2-0.6c-0.3-0.4-0.5-0.9-0.5-1.5
						c0-0.6,0.1-1.1,0.3-1.7c0.2-0.6,0.5-1.1,0.9-1.7c0.4-0.5,0.8-0.9,1.2-1.2c0.4-0.3,0.8-0.4,1.3-0.4c0.3,0,0.5,0.1,0.7,0.2
						c0.2,0.1,0.4,0.3,0.5,0.5l0.2-0.7h1.4L130.6,45.1z"/>
					<path class="st1" d="M133.5,44.7c0.3,0,0.5,0.1,0.7,0.3c0.2,0.2,0.3,0.4,0.3,0.7c0,0.3-0.1,0.5-0.3,0.7
						c-0.2,0.2-0.4,0.3-0.7,0.3c-0.3,0-0.5-0.1-0.7-0.3c-0.2-0.2-0.3-0.4-0.3-0.7c0-0.3,0.1-0.5,0.3-0.7
						C133,44.8,133.2,44.7,133.5,44.7z"/>
					<path class="st1" d="M143,41.6c0.1,0,0.2,0,0.3,0c0.1,0,0.2,0,0.3,0c0.9,0,1.6-0.2,2.1-0.7c0.5-0.5,0.8-1.1,0.8-1.8
						c0-0.5-0.2-0.9-0.5-1.3c-0.3-0.3-0.8-0.5-1.3-0.5c-0.3,0-0.5,0.1-0.7,0.2c-0.1,0.1-0.2,0.4-0.3,0.7L143,41.6z M144.6,36.9
						c1.3,0,2.3,0.2,2.9,0.6c0.6,0.4,0.9,1,0.9,1.8c0,0.9-0.4,1.7-1.1,2.2c-0.7,0.5-1.8,0.8-3.1,0.8c-0.2,0-0.4,0-0.6,0
						c-0.2,0-0.4,0-0.7-0.1l-0.6,2.6c0,0,0,0,0,0.1c0,0.2-0.1,0.4-0.1,0.5c0,0.3,0.1,0.5,0.3,0.7c0.2,0.1,0.5,0.2,0.8,0.2h0.1l0,0.3
						h-4.2l0.1-0.3c0.4,0,0.7-0.2,0.8-0.4c0.2-0.2,0.4-0.7,0.5-1.4l1.3-5.8c0-0.1,0-0.2,0.1-0.3c0-0.1,0-0.2,0-0.3
						c0-0.2-0.1-0.4-0.3-0.6c-0.2-0.1-0.5-0.2-0.9-0.3l0.1-0.3H144.6z"/>
					<path class="st1" d="M150.8,41.5c0.3-0.6,0.7-1,1-1.3c0.3-0.3,0.6-0.4,0.9-0.4c0.3,0,0.5,0.1,0.6,0.2c0.2,0.2,0.2,0.4,0.2,0.6
						c0,0.3-0.1,0.5-0.2,0.7c-0.1,0.2-0.3,0.3-0.6,0.3c-0.1,0-0.3-0.1-0.5-0.2c-0.2-0.2-0.3-0.2-0.4-0.2c-0.3,0-0.5,0.3-0.9,0.8
						c-0.3,0.5-0.6,1.2-0.7,2l-0.6,2.7h-1.5l1.2-5.2c0-0.1,0-0.1,0-0.2c0-0.1,0-0.1,0-0.2c0-0.2-0.1-0.3-0.2-0.4
						c-0.1-0.1-0.3-0.1-0.6-0.1h-0.1l0.1-0.3c0.4,0,0.9-0.1,1.3-0.2c0.4-0.1,0.9-0.1,1.3-0.2L150.8,41.5z"/>
					<path class="st1" d="M156.1,46.2c0.3,0,0.5-0.1,0.8-0.3c0.2-0.2,0.4-0.5,0.6-0.8c0.3-0.6,0.5-1.2,0.7-1.8
						c0.2-0.6,0.2-1.2,0.2-1.8c0-0.4-0.1-0.8-0.3-1c-0.2-0.2-0.4-0.3-0.8-0.3c-0.2,0-0.5,0.1-0.7,0.3c-0.2,0.2-0.4,0.4-0.6,0.8
						c-0.3,0.6-0.6,1.2-0.8,1.8c-0.2,0.7-0.3,1.2-0.3,1.7c0,0.4,0.1,0.8,0.3,1C155.5,46.1,155.8,46.2,156.1,46.2z M156.1,46.7
						c-0.7,0-1.3-0.2-1.8-0.7c-0.5-0.5-0.7-1.1-0.7-1.9c0-0.5,0.1-1.1,0.3-1.6c0.2-0.5,0.6-1,1-1.5c0.4-0.4,0.8-0.7,1.2-0.9
						c0.4-0.2,0.9-0.3,1.3-0.3c0.7,0,1.3,0.2,1.8,0.7c0.5,0.5,0.7,1.1,0.7,1.9c0,0.5-0.1,1.1-0.4,1.7c-0.2,0.6-0.6,1.1-1,1.5
						c-0.4,0.4-0.8,0.7-1.2,0.9C156.9,46.6,156.5,46.7,156.1,46.7z"/>
					<path class="st1" d="M162,40.5h-1l0.1-0.4c0.7-0.1,1.3-0.4,1.7-0.8c0.4-0.4,0.8-0.9,1-1.5h0.5l-0.5,2.1h1.5l-0.1,0.6h-1.4
						l-1.1,4.6c0,0.1,0,0.1,0,0.1c0,0,0,0.1,0,0.1c0,0.1,0,0.2,0.1,0.2c0,0.1,0.1,0.1,0.2,0.1c0.1,0,0.3-0.1,0.5-0.2
						c0.2-0.2,0.4-0.4,0.6-0.8l0.3,0.2c-0.4,0.6-0.7,1.1-1.1,1.4c-0.4,0.3-0.8,0.4-1.2,0.4c-0.3,0-0.5-0.1-0.7-0.2
						c-0.2-0.2-0.2-0.4-0.2-0.7c0-0.1,0-0.1,0-0.2c0-0.1,0-0.2,0.1-0.3L162,40.5z"/>
					<path class="st1" d="M166.8,43.3c0.8-0.2,1.5-0.6,2-1c0.5-0.5,0.7-0.9,0.7-1.4c0-0.2-0.1-0.3-0.2-0.4c-0.1-0.1-0.3-0.2-0.4-0.2
						c-0.4,0-0.8,0.3-1.2,0.8C167.4,41.6,167,42.3,166.8,43.3z M170,45.1c-0.4,0.5-0.9,0.9-1.4,1.2c-0.5,0.3-1,0.4-1.5,0.4
						c-0.7,0-1.2-0.2-1.5-0.6c-0.4-0.4-0.6-0.9-0.6-1.6c0-0.5,0.1-1.1,0.3-1.6c0.2-0.6,0.6-1.1,1-1.5c0.4-0.5,0.9-0.9,1.4-1.1
						c0.5-0.3,1-0.4,1.5-0.4c0.5,0,0.8,0.1,1.1,0.3c0.3,0.2,0.4,0.5,0.4,0.9c0,0.6-0.3,1.2-0.9,1.6c-0.6,0.4-1.7,0.9-3.3,1.3
						c0,0,0,0,0,0.1c0,0.2,0,0.4,0,0.4c0,0.5,0.1,0.8,0.3,1.1c0.2,0.3,0.5,0.4,0.8,0.4c0.3,0,0.6-0.1,0.9-0.2c0.3-0.2,0.6-0.4,1-0.8
						L170,45.1z"/>
					<path class="st1" d="M172.5,46.5c-0.4,0.1-0.7,0.2-0.9,0.4c-0.2,0.2-0.3,0.5-0.3,0.8c0,0.4,0.2,0.7,0.5,0.9
						c0.3,0.2,0.7,0.3,1.3,0.3c0.6,0,1.1-0.1,1.5-0.4c0.4-0.3,0.6-0.6,0.6-0.9c0-0.4-0.7-0.7-2.2-1
						C172.6,46.5,172.5,46.5,172.5,46.5z M174.3,40.2c-0.4,0-0.7,0.2-0.9,0.7c-0.3,0.5-0.4,1.1-0.4,1.8c0,0.3,0.1,0.6,0.2,0.8
						c0.1,0.2,0.3,0.3,0.6,0.3c0.2,0,0.4-0.1,0.5-0.2c0.1-0.1,0.3-0.3,0.4-0.6c0.1-0.3,0.2-0.6,0.3-0.9c0.1-0.3,0.1-0.6,0.1-0.9
						c0-0.3-0.1-0.5-0.2-0.7C174.7,40.3,174.5,40.2,174.3,40.2z M173.3,44.2c-0.1,0.1-0.3,0.2-0.3,0.3c-0.1,0.1-0.1,0.2-0.1,0.3
						c0,0.2,0.3,0.4,1,0.5c0.1,0,0.2,0,0.3,0c0.8,0.2,1.3,0.4,1.6,0.6c0.3,0.2,0.4,0.6,0.4,1.1c0,0.7-0.3,1.3-0.9,1.7
						c-0.6,0.4-1.4,0.7-2.3,0.7c-0.8,0-1.4-0.1-1.9-0.4c-0.5-0.3-0.7-0.7-0.7-1.1c0-0.4,0.1-0.7,0.4-1c0.3-0.3,0.7-0.5,1.2-0.7
						c-0.1-0.1-0.2-0.2-0.2-0.3c-0.1-0.1-0.1-0.2-0.1-0.4c0-0.3,0.1-0.5,0.3-0.8c0.2-0.2,0.5-0.5,0.9-0.6c-0.4-0.2-0.7-0.4-0.9-0.7
						c-0.2-0.3-0.3-0.7-0.3-1.1c0-0.7,0.3-1.3,0.8-1.8c0.5-0.5,1.2-0.7,1.9-0.7c0.2,0,0.4,0,0.7,0.1c0.2,0,0.5,0.1,0.8,0.2l1.6-0.1
						l-0.2,0.9h-0.6c0,0.1,0,0.3,0.1,0.4c0,0.1,0,0.2,0,0.3c0,0.8-0.3,1.4-0.8,1.9c-0.6,0.5-1.3,0.7-2.2,0.7c0,0-0.1,0-0.1,0
						C173.3,44.2,173.3,44.2,173.3,44.2z"/>
					<path class="st1" d="M178.9,43.3c0.8-0.2,1.5-0.6,2-1c0.5-0.5,0.8-0.9,0.8-1.4c0-0.2-0.1-0.3-0.2-0.4c-0.1-0.1-0.3-0.2-0.4-0.2
						c-0.4,0-0.8,0.3-1.2,0.8C179.5,41.6,179.2,42.3,178.9,43.3z M182.1,45.1c-0.4,0.5-0.9,0.9-1.4,1.2c-0.5,0.3-1,0.4-1.5,0.4
						c-0.7,0-1.2-0.2-1.5-0.6c-0.4-0.4-0.6-0.9-0.6-1.6c0-0.5,0.1-1.1,0.3-1.6c0.2-0.6,0.6-1.1,1-1.5c0.4-0.5,0.9-0.9,1.4-1.1
						c0.5-0.3,1-0.4,1.5-0.4c0.5,0,0.8,0.1,1.1,0.3c0.3,0.2,0.4,0.5,0.4,0.9c0,0.6-0.3,1.2-0.9,1.6c-0.6,0.4-1.7,0.9-3.3,1.3
						c0,0,0,0,0,0.1c0,0.2,0,0.4,0,0.4c0,0.5,0.1,0.8,0.3,1.1c0.2,0.3,0.5,0.4,0.8,0.4c0.3,0,0.6-0.1,0.9-0.2c0.3-0.2,0.6-0.4,1-0.8
						L182.1,45.1z"/>
					<path class="st1" d="M184.2,44.7c0.3,0,0.5,0.1,0.7,0.3c0.2,0.2,0.3,0.4,0.3,0.7c0,0.3-0.1,0.5-0.3,0.7
						c-0.2,0.2-0.4,0.3-0.7,0.3c-0.3,0-0.5-0.1-0.7-0.3c-0.2-0.2-0.3-0.4-0.3-0.7c0-0.3,0.1-0.5,0.3-0.7
						C183.7,44.8,183.9,44.7,184.2,44.7z"/>
					<path class="st1" d="M195.2,39l-2.3,3.8h3L195.2,39z M195.8,36.7h0.5l1.8,8.5c0,0.2,0.1,0.3,0.2,0.4c0.1,0.1,0.2,0.2,0.3,0.2
						c0.1,0,0.1,0.1,0.3,0.1c0.1,0,0.2,0.1,0.4,0.1l-0.1,0.4h-3.9l0-0.4h0.1c0.3,0,0.6-0.1,0.8-0.2c0.2-0.1,0.3-0.4,0.3-0.6
						c0,0,0-0.1,0-0.1c0,0,0-0.1,0-0.2l-0.3-1.5h-3.5l-0.8,1.5c0,0.1-0.1,0.1-0.1,0.2c0,0.1,0,0.2,0,0.2c0,0.2,0.1,0.4,0.2,0.5
						c0.2,0.1,0.4,0.2,0.7,0.2h0.1l-0.1,0.4h-3.3l0.1-0.4c0.3,0,0.6-0.1,0.8-0.3c0.2-0.2,0.5-0.4,0.7-0.8L195.8,36.7z"/>
					<path class="st1" d="M199.7,46.5l2-8.3c0-0.1,0-0.1,0-0.2c0-0.1,0-0.1,0-0.1c0-0.2-0.1-0.3-0.2-0.4c-0.1-0.1-0.3-0.1-0.6-0.1
						h-0.1l0.1-0.3c0.5-0.1,1-0.1,1.4-0.2c0.5-0.1,0.9-0.1,1.3-0.2l-1.1,4.7c0.4-0.5,0.8-1,1.2-1.2c0.4-0.3,0.9-0.4,1.4-0.4
						c0.4,0,0.7,0.1,0.9,0.3c0.2,0.2,0.3,0.5,0.3,0.9c0,0.1,0,0.2,0,0.3c0,0.1-0.1,0.3-0.1,0.4l-0.8,3.1c0,0.1,0,0.1-0.1,0.2
						c-0.1,0.2-0.1,0.4-0.1,0.5c0,0.1,0,0.2,0.1,0.2c0,0.1,0.1,0.1,0.2,0.1c0.1,0,0.3-0.1,0.4-0.2c0.1-0.1,0.3-0.4,0.5-0.7l0.3,0.2
						c-0.3,0.6-0.7,1-1,1.3c-0.3,0.3-0.7,0.4-1.1,0.4c-0.3,0-0.5-0.1-0.7-0.2c-0.2-0.2-0.2-0.4-0.2-0.7c0-0.1,0-0.2,0-0.3
						c0-0.1,0.1-0.3,0.1-0.6l0.9-3.2c0,0,0-0.1,0-0.1c0-0.2,0.1-0.3,0.1-0.4c0-0.2,0-0.3-0.1-0.4c-0.1-0.1-0.2-0.1-0.4-0.1
						c-0.4,0-0.9,0.3-1.4,0.9c-0.5,0.6-0.8,1.3-1,2.2l-0.7,2.8H199.7z"/>
					<path class="st1" d="M209.9,46.2c0.3,0,0.5-0.1,0.8-0.3c0.2-0.2,0.4-0.5,0.6-0.8c0.3-0.6,0.5-1.2,0.7-1.8
						c0.2-0.6,0.2-1.2,0.2-1.8c0-0.4-0.1-0.8-0.3-1c-0.2-0.2-0.4-0.3-0.8-0.3c-0.2,0-0.5,0.1-0.7,0.3c-0.2,0.2-0.4,0.4-0.6,0.8
						c-0.3,0.6-0.6,1.2-0.8,1.8c-0.2,0.7-0.3,1.2-0.3,1.7c0,0.4,0.1,0.8,0.3,1C209.3,46.1,209.6,46.2,209.9,46.2z M209.9,46.7
						c-0.7,0-1.3-0.2-1.8-0.7c-0.5-0.5-0.7-1.1-0.7-1.9c0-0.5,0.1-1.1,0.3-1.6c0.2-0.5,0.6-1,1-1.5c0.4-0.4,0.8-0.7,1.2-0.9
						c0.4-0.2,0.9-0.3,1.3-0.3c0.7,0,1.3,0.2,1.8,0.7c0.5,0.5,0.7,1.1,0.7,1.9c0,0.5-0.1,1.1-0.4,1.7c-0.2,0.6-0.6,1.1-1,1.5
						c-0.4,0.4-0.8,0.7-1.2,0.9C210.7,46.6,210.3,46.7,209.9,46.7z"/>
					<path class="st1" d="M217,41.5c0.3-0.6,0.7-1,1-1.3c0.3-0.3,0.6-0.4,0.9-0.4c0.3,0,0.5,0.1,0.6,0.2c0.2,0.2,0.2,0.4,0.2,0.6
						c0,0.3-0.1,0.5-0.2,0.7c-0.1,0.2-0.3,0.3-0.6,0.3c-0.1,0-0.3-0.1-0.5-0.2c-0.2-0.2-0.3-0.2-0.4-0.2c-0.3,0-0.6,0.3-0.9,0.8
						c-0.3,0.5-0.6,1.2-0.7,2l-0.6,2.7h-1.5l1.2-5.2c0-0.1,0-0.1,0-0.2c0-0.1,0-0.1,0-0.2c0-0.2-0.1-0.3-0.2-0.4
						c-0.1-0.1-0.3-0.1-0.6-0.1h-0.1l0.1-0.3c0.4,0,0.9-0.1,1.3-0.2c0.4-0.1,0.9-0.1,1.3-0.2L217,41.5z"/>
					<path class="st1" d="M222.3,41.5c0.3-0.6,0.7-1,1-1.3c0.3-0.3,0.6-0.4,0.9-0.4c0.3,0,0.5,0.1,0.6,0.2c0.2,0.2,0.2,0.4,0.2,0.6
						c0,0.3-0.1,0.5-0.2,0.7c-0.1,0.2-0.3,0.3-0.6,0.3c-0.1,0-0.3-0.1-0.5-0.2c-0.2-0.2-0.3-0.2-0.4-0.2c-0.3,0-0.6,0.3-0.9,0.8
						c-0.3,0.5-0.6,1.2-0.7,2l-0.6,2.7h-1.5l1.2-5.2c0-0.1,0-0.1,0-0.2c0-0.1,0-0.1,0-0.2c0-0.2-0.1-0.3-0.2-0.4
						c-0.1-0.1-0.3-0.1-0.6-0.1H220l0.1-0.3c0.4,0,0.9-0.1,1.3-0.2c0.4-0.1,0.9-0.1,1.3-0.2L222.3,41.5z"/>
					<path class="st1" d="M226.4,44.7c0,0.3,0.1,0.6,0.2,0.8c0.1,0.2,0.4,0.3,0.6,0.3c0.2,0,0.4-0.1,0.7-0.3
						c0.2-0.2,0.4-0.5,0.6-0.8c0.3-0.5,0.5-1.1,0.7-1.8c0.2-0.7,0.3-1.2,0.3-1.7c0-0.3-0.1-0.5-0.2-0.7s-0.3-0.2-0.5-0.2
						c-0.2,0-0.4,0.1-0.7,0.3c-0.2,0.2-0.4,0.5-0.6,0.8c-0.3,0.5-0.6,1.1-0.8,1.7C226.5,43.7,226.4,44.2,226.4,44.7z M230.1,45.1
						c0,0.1,0,0.1,0,0.1c0,0,0,0.1,0,0.1c0,0.1,0,0.2,0.1,0.3c0,0.1,0.1,0.1,0.2,0.1c0.1,0,0.2-0.1,0.4-0.2c0.1-0.1,0.3-0.4,0.5-0.7
						l0.3,0.2c-0.3,0.5-0.6,1-1,1.3c-0.3,0.3-0.7,0.5-1,0.5c-0.3,0-0.4-0.1-0.6-0.2c-0.1-0.2-0.2-0.4-0.2-0.7c0-0.1,0-0.2,0-0.3
						c0-0.1,0-0.2,0.1-0.4c-0.3,0.5-0.7,0.9-1,1.2c-0.4,0.3-0.8,0.4-1.2,0.4c-0.5,0-0.9-0.2-1.2-0.6c-0.3-0.4-0.5-0.9-0.5-1.5
						c0-0.6,0.1-1.1,0.3-1.7c0.2-0.6,0.5-1.1,0.9-1.7c0.4-0.5,0.8-0.9,1.2-1.2c0.4-0.3,0.8-0.4,1.3-0.4c0.3,0,0.5,0.1,0.7,0.2
						c0.2,0.1,0.4,0.3,0.5,0.5l0.2-0.7h1.4L230.1,45.1z"/>
					<path class="st1" d="M233,44.7c0.3,0,0.5,0.1,0.7,0.3c0.2,0.2,0.3,0.4,0.3,0.7c0,0.3-0.1,0.5-0.3,0.7c-0.2,0.2-0.4,0.3-0.7,0.3
						c-0.3,0-0.5-0.1-0.7-0.3c-0.2-0.2-0.3-0.4-0.3-0.7c0-0.3,0.1-0.5,0.3-0.7C232.5,44.8,232.8,44.7,233,44.7z"/>
				</g>
			</g>
		</g>
	</g>
	<path class="st2" d="M87.5,22.7h1.9L88.3,19l-0.1-0.5l-0.1-0.4l-0.1-0.4l-0.1-0.5L87.8,17l-0.1-0.5l-0.1-0.4v-0.4l-0.1,0.4
		l-0.1,0.5L87.2,17l-0.1,0.4l-0.1,0.5l-0.1,0.4l-0.1,0.4L86.7,19l-1.2,3.7H87.5z M87.5,11.2h7.6l6.3,19.4H91.4L90.6,28h-3.1h-3.1
		l-0.7,2.5h-9.5h-0.6l0.6-1.9l5.7-17.5H87.5z M143.5,25.4h0.3l0.4-0.1l0.3-0.1l0.3-0.1l0.3-0.2l0.2-0.1l0.2-0.2l0.2-0.3l0.2-0.2
		l0.2-0.4l0.1-0.3l0.1-0.4l0.2-0.4l0.1-0.4v-0.5l0.1-0.5l-0.1-0.4v-0.5l-0.1-0.4l-0.1-0.4l-0.1-0.4l-0.1-0.3l-0.1-0.4l-0.2-0.2
		l-0.2-0.3l-0.2-0.1l-0.2-0.2l-0.3-0.1l-0.3-0.1l-0.4-0.1h-0.4h-0.3h-0.4h-0.4l-0.4,0.1l-0.3,0.1l-0.3,0.1l-0.2,0.2l-0.2,0.1
		l-0.2,0.3l-0.2,0.2l-0.1,0.4l-0.1,0.3l-0.2,0.4l-0.1,0.4l-0.1,0.4v0.5v0.4v0.5v0.5l0.1,0.4l0.1,0.4l0.1,0.4l0.1,0.3l0.1,0.4
		l0.2,0.2l0.2,0.3l0.2,0.2l0.2,0.1l0.3,0.2l0.3,0.1l0.3,0.1l0.4,0.1H143.5z M143.5,10.6l1.6,0.1l1.6,0.1h0.7l0.7,0.1l0.6,0.1
		l0.7,0.1l0.6,0.1l0.6,0.2l0.5,0.2l0.5,0.2l0.5,0.2l0.5,0.3l0.4,0.3l0.5,0.3l0.4,0.3l0.4,0.4l0.4,0.4l0.3,0.4l0.3,0.4l0.2,0.4
		l0.3,0.4l0.2,0.5l0.1,0.4l0.2,0.5l0.1,0.6l0.1,0.5l0.1,0.5l0.1,0.6v0.7v0.6v0.7v0.6l-0.1,0.6l-0.1,0.6l-0.1,0.6l-0.1,0.5l-0.2,0.5
		l-0.1,0.5l-0.2,0.5l-0.3,0.5l-0.2,0.4l-0.3,0.4l-0.3,0.4l-0.4,0.4l-0.4,0.4l-0.4,0.3l-0.5,0.3l-0.4,0.3l-0.5,0.3l-0.5,0.2l-0.5,0.2
		l-0.5,0.2l-0.6,0.1l-0.6,0.2l-0.7,0.1l-0.6,0.1l-0.7,0.1l-0.7,0.1l-1.6,0.1h-1.6h-1.6l-1.5-0.1l-0.7-0.1l-0.7-0.1l-0.6-0.1
		l-0.7-0.1l-0.6-0.2l-0.6-0.1l-0.5-0.2l-0.5-0.2l-0.5-0.2l-0.5-0.3l-0.4-0.3l-0.4-0.3l-0.4-0.3l-0.4-0.4l-0.4-0.4l-0.3-0.4l-0.3-0.4
		l-0.2-0.4l-0.2-0.5l-0.2-0.5l-0.2-0.5l-0.1-0.5l-0.2-0.5l-0.1-0.6l-0.1-0.6v-0.6l-0.1-0.6v-0.7v-0.6l0.1-0.7V19l0.1-0.5l0.1-0.5
		l0.2-0.6l0.1-0.5l0.2-0.4l0.2-0.5l0.2-0.4l0.2-0.4l0.3-0.4l0.3-0.4l0.4-0.4l0.4-0.4l0.4-0.3l0.4-0.3l0.4-0.3l0.5-0.3l0.5-0.2
		l0.5-0.2l0.5-0.2l0.6-0.2l0.6-0.1l0.7-0.1l0.6-0.1l0.7-0.1h0.7l1.5-0.1L143.5,10.6z M74.1,19.8h0.6v5.8h-0.6H63.3v4.9h-10V11.2
		h20.8h0.6V18h-0.6H63.3v1.8H74.1z M196,22.7h2l-1.3-3.7l-0.1-0.5l-0.1-0.4l-0.1-0.4l-0.1-0.5l-0.1-0.4l-0.2-0.5l-0.1-0.4l-0.1-0.4
		v-0.1l-0.1,0.5l-0.1,0.5l-0.1,0.4l-0.1,0.4l-0.1,0.5l-0.1,0.4l-0.1,0.4l-0.1,0.4l-1.3,3.7H196z M196,11.2h7.6l6.3,19.4h-10.1
		l-0.7-2.5H196h-3.1l-0.8,2.5h-10l6.2-19.4H196z M102.8,30.6V11.2h10l3.7,5.4l0.3,0.5l0.2,0.4l0.2,0.4l0.3,0.4l0.4,0.6l0.3,0.6v-0.6
		V18v-0.3v-0.4v-0.5v-0.6v-5h9.4v19.4H119l-5.1-6.4l-0.5-0.7l-0.5-0.7l-0.4-0.7l-0.4-0.6V22l0.1,0.5v0.4v0.5v0.7v0.5v6.1H102.8z
		 M180.5,11.5v5.8l-1.3-0.1L178,17l-1.1-0.1l-1-0.2H175l-0.8-0.1h-0.7h-0.7h-1h-0.9l-0.7,0.1l-0.5,0.1l-0.3,0.2l-0.2,0.1l-0.2,0.1
		v0.1l-0.1,0.1v0.1v0.1l0.1,0.1v0.1l0.2,0.1l0.2,0.1l0.3,0.1l0.4,0.1h0.5l0.5,0.1l0.7,0.1h0.5h0.5h0.4h0.4h1l0.9,0.1l0.9,0.1
		l0.7,0.2l0.7,0.1l0.6,0.2l0.6,0.3l0.5,0.3l0.4,0.3l0.4,0.5l0.3,0.4l0.3,0.5l0.2,0.5l0.1,0.6l0.1,0.6V24v0.5v0.4l-0.1,0.5v0.4
		L181,26l-0.1,0.4l-0.2,0.3l-0.2,0.4l-0.2,0.3l-0.1,0.4l-0.3,0.3l-0.2,0.3l-0.3,0.2l-0.3,0.3l-0.4,0.2l-0.3,0.2l-0.8,0.5l-0.9,0.3
		l-0.9,0.3l-1.1,0.3l-1.1,0.1l-1.2,0.1l-1.3,0.1l-1.4,0.1h-1.3l-1.3-0.1l-1.2-0.1l-1.3-0.1l-1.2-0.1l-1.3-0.1l-1.3-0.1l-1.3-0.2
		v-5.5l1.3,0.2l1.3,0.1l1.3,0.1l1.3,0.1l1.2,0.1l1.1,0.1h1.1h1h0.6h0.4l0.4-0.1l0.3-0.1l0.2-0.1l0.1-0.1l0.1-0.1V25v-0.2v-0.1
		l-0.1-0.1l-0.2-0.1l-0.1-0.1l-0.1-0.1l-0.3-0.1h-0.4h-0.2h-0.4h-0.5l-0.7-0.1H167l-0.7-0.1h-0.7l-0.5-0.1l-0.9-0.1l-0.7-0.1
		l-0.7-0.1l-0.7-0.2l-0.6-0.2l-0.5-0.3l-0.4-0.3l-0.4-0.4l-0.3-0.4l-0.4-0.4l-0.2-0.4l-0.2-0.5l-0.2-0.6l-0.1-0.5l-0.1-0.6v-0.7
		v-0.5l0.1-0.4v-0.4l0.1-0.4l0.1-0.5l0.1-0.4l0.1-0.4l0.2-0.4l0.1-0.3l0.3-0.4l0.2-0.3l0.2-0.3l0.4-0.3l0.2-0.3l0.4-0.2l0.4-0.2
		l0.4-0.2l0.4-0.1l0.5-0.2l0.4-0.1l1.1-0.4l1-0.2l1.2-0.2l1.3-0.1l1.5-0.1h1.5h1.1l1.2,0.1h1.1l1.2,0.1l1.2,0.1l1.2,0.2l1.2,0.1
		L180.5,11.5z"/>
	<path class="st3" d="M41.2,9.8L41,9.5L40.9,9l-0.3-0.7l-0.2-0.4l-0.1-0.3l-1.1-1.4l-0.9-0.9l-1-0.7l-0.4-0.2l-0.3-0.2l-1.3-0.5
		l-2.1-0.4H14.9l-0.4,0l-2.1,0.4l-1.9,0.9L9.5,5.3L8.3,6.5L7.4,7.9L6.7,9.5l-0.1,0.7l-0.2,0.5l0,0.4l-0.1,0.5v8.9h6.6
		c0.3-6,5.2-10.7,11.2-10.7c6,0,10.9,4.8,11.2,10.7h6.2V12l0-1L41.2,9.8z"/>
	<path class="st4" d="M24.1,32.1c-6,0-10.9-4.8-11.2-10.8H6.3v8.5l0,0.4l0.1,0.4v0.4l0.2,0.4l0.2,0.9l0.5,1.2l0.6,1.1l0.5,0.6
		l0.3,0.3l0.2,0.3l0.7,0.6l1.3,0.9l1.7,0.7l2.1,0.4h18.8l2.1-0.4l1.5-0.6l1.4-1l0.9-0.9l0.2-0.3l0.5-0.6l0.3-0.5l0.1-0.3l0.2-0.3
		l0.4-0.9l0.1-0.3l0.2-0.5l0.2-1.3v-9.3h-6.2C35,27.4,30.1,32.1,24.1,32.1z"/>
	<path class="st0" d="M44.2,10.4V9.8L44,9.3L44,8.7l-0.2-0.5l-0.2-0.5l-0.2-0.5l-0.2-0.5l-0.2-0.5l-0.2-0.5l-0.3-0.4l-0.3-0.5
		l-0.3-0.4l-0.3-0.4l-0.4-0.4l-0.2-0.2l-0.2-0.2l-0.4-0.3l-0.4-0.3l-0.5-0.3l-0.4-0.3l-0.5-0.2l-0.5-0.2l-0.5-0.2l-0.5-0.2L36.6,1
		l-0.5-0.2l-0.5-0.2L35,0.7l-0.5-0.1h-0.5h-0.5H14.4h-0.6h-0.5l-0.5,0.1l-0.5,0.1l-0.5,0.2L11.2,1l-0.5,0.2l-0.5,0.2L9.7,1.7
		L9.2,1.9L8.8,2.1L8.3,2.4L7.9,2.8L7.5,3.1L7.1,3.4L7.1,3.5L6.8,3.8L6.4,4.2L6,4.5L5.7,4.9L5.4,5.4L5.1,5.8L4.8,6.2L4.6,6.7L4.4,7.2
		L4.2,7.7L4,8.2L3.9,8.7L3.7,9.3L3.6,9.8l-0.1,0.5l-0.1,0.5v0.5v18.9V31l0.1,0.5l0.1,0.6l0.1,0.5l0.2,0.5L4,33.7l0.2,0.5l0.2,0.5
		l0.2,0.5l0.2,0.5l0.3,0.5l0.2,0.5l0.3,0.4L6,37.3l0.4,0.4l0.4,0.4l0.3,0.4h0.1l0.4,0.4l0.4,0.2l0.4,0.4l0.5,0.2L9.2,40l0.5,0.2
		l0.5,0.2l0.5,0.2l0.5,0.2l0.5,0.2l0.5,0.2l0.5,0.1l0.5,0.1h0.5h0.6h18.9h0.5h0.5l0.5-0.1l0.5-0.1l0.5-0.2l0.5-0.2l0.5-0.2l0.5-0.2
		l0.5-0.2l0.5-0.2l0.5-0.3l0.4-0.2l0.5-0.4l0.4-0.2l0.4-0.4l0.4-0.4l0.4-0.4l0.3-0.4l0.3-0.4l0.3-0.4l0.3-0.5l0.2-0.5l0.2-0.5
		l0.2-0.5l0.2-0.5l0.2-0.5l0.2-0.5l0.1-0.5l0.2-0.5v-0.6l0.1-0.5v-0.6V11.5v-0.5L44.2,10.4z M43.3,10.9v0.5v18.9v0.5v0.5L43.2,32
		l-0.1,0.5l-0.2,0.5l-0.1,0.5l-0.2,0.5l-0.2,0.5l-0.2,0.5l-0.2,0.4l-0.2,0.4l-0.2,0.4l-0.3,0.4L41,36.7L40.7,37l-0.1,0.2l-0.2,0.2
		l-0.3,0.3l-0.4,0.4l-0.4,0.2l-0.4,0.3l-0.4,0.2l-0.4,0.2l-0.5,0.2l-0.4,0.2l-0.5,0.2l-0.5,0.2L35.9,40l-0.5,0.1l-0.5,0.1l-0.5,0.1
		l-0.5,0.1h-0.5H14.4h-0.5l-0.5-0.1l-0.5-0.1l-0.5-0.1L12,40l-0.5-0.2L11,39.7l-0.5-0.2l-0.5-0.2l-0.4-0.2l-0.4-0.2l-0.4-0.2
		l-0.4-0.3l-0.4-0.2l-0.4-0.4l-0.3-0.3l-0.2-0.2L7.1,37l-0.3-0.3l-0.3-0.4l-0.2-0.4L6,35.5l-0.3-0.4l-0.2-0.4l-0.2-0.5l-0.2-0.5
		L5,33.3l-0.2-0.5l-0.1-0.5L4.7,32l-0.1-0.5l-0.1-0.5v-0.5V11.5v-0.5l0.1-0.5L4.7,10l0.1-0.5L4.8,9L5,8.5L5.1,8l0.2-0.5l0.2-0.4
		l0.2-0.5L6,6.3l0.2-0.4l0.2-0.4l0.3-0.4l0.3-0.3l0.1-0.1l0.3-0.3l0.3-0.3l0.4-0.3l0.4-0.3l0.4-0.3L9.3,3l0.4-0.2l0.4-0.2l0.5-0.2
		L11,2.1L11.5,2L12,1.9l0.5-0.2l0.5-0.1l0.5-0.1h0.5l0.5-0.1h18.9l0.5,0.1h0.5l0.5,0.1l0.5,0.1l0.5,0.2L36.3,2l0.5,0.2l0.5,0.2
		l0.4,0.2l0.5,0.2L38.5,3l0.4,0.2l0.4,0.3l0.4,0.3l0.4,0.3l0.3,0.3l0.1,0.1l0.2,0.2L41,5.2l0.3,0.4l0.3,0.4l0.2,0.4l0.2,0.4l0.2,0.5
		l0.2,0.4L42.7,8l0.2,0.5L42.9,9l0.2,0.5l0.1,0.5l0.1,0.5V10.9z"/>
	<radialGradient id="SVGID_1_" cx="24.0806" cy="20.9444" r="9.7734" fx="27.6504" fy="17.4797" gradientUnits="userSpaceOnUse">
		<stop  offset="0" style="stop-color:#FFFFFF"/>
		<stop  offset="1" style="stop-color:#919191"/>
	</radialGradient>
	<path class="st5" d="M33.8,20.5c-0.2-5.2-4.5-9.3-9.8-9.3c-5.2,0-9.5,4.1-9.8,9.3c0,0.2,0,0.3,0,0.5c0,0.1,0,0.3,0,0.4
		c0.2,5.2,4.5,9.3,9.8,9.3c5.3,0,9.5-4.1,9.8-9.3c0-0.1,0-0.3,0-0.4C33.9,20.8,33.8,20.6,33.8,20.5z"/>
</g>
</svg>
